<svg xmlns="http://www.w3.org/2000/svg"  viewBox="0 0 64 64" width="48px" height="48px"><path d="M 23.773438 12 C 12.855437 12 12 12.854437 12 23.773438 L 12 40.226562 C 12 51.144563 12.855438 52 23.773438 52 L 40.226562 52 C 51.144563 52 52 51.145563 52 40.226562 L 52 23.773438 C 52 12.854437 51.145563 12 40.226562 12 L 23.773438 12 z M 21.167969 16 L 42.832031 16 C 47.625031 16 48 16.374969 48 21.167969 L 48 42.832031 C 48 47.625031 47.624031 48 42.832031 48 L 21.167969 48 C 16.374969 48 16 47.624031 16 42.832031 L 16 21.167969 C 16 16.374969 16.374969 16 21.167969 16 z M 21.412109 25.160156 C 20.532109 25.160156 19.818359 25.873906 19.818359 26.753906 L 19.818359 34.603516 C 19.818359 36.930516 21.705203 38.816406 24.033203 38.816406 L 35.804688 38.816406 C 36.684688 38.816406 37.398438 38.102656 37.398438 37.222656 L 37.398438 29.373047 C 37.398437 27.046047 35.511547 25.160156 33.185547 25.160156 L 21.412109 25.160156 z M 43.138672 25.232422 C 42.966516 25.250687 42.794578 25.318313 42.642578 25.445312 L 39.369141 28.177734 C 38.719141 28.720734 38.338125 29.521187 38.328125 30.367188 L 38.292969 33.521484 C 38.282969 34.391484 38.664031 35.219344 39.332031 35.777344 L 42.591797 38.5 C 43.196797 39.006 44.118094 38.578063 44.121094 37.789062 L 44.171875 26.164062 C 44.174875 25.569312 43.655141 25.177625 43.138672 25.232422 z"/></svg>