<svg width="369" height="92" viewBox="0 0 369 92" fill="none" xmlns="http://www.w3.org/2000/svg">
<path d="M0.5275 46.2C0.5275 39.8853 1.0395 33.9973 2.0635 28.536C3.17283 22.9893 4.8795 18.168 7.1835 14.072C9.57283 9.976 12.6022 6.73333 16.2715 4.34399C20.0262 1.95466 24.5488 0.759995 29.8395 0.759995C31.4608 0.759995 33.2102 0.930662 35.0875 1.272C36.9648 1.61333 38.8848 2.04 40.8475 2.55199C42.8102 2.97866 44.7728 3.36266 46.7355 3.70399C48.6982 4.04533 50.5328 4.216 52.2395 4.216C53.4342 4.216 54.5435 4.13066 55.5675 3.96C56.6768 3.704 57.7008 3.23466 58.6395 2.55199C56.8475 6.30666 55.1408 8.90933 53.5195 10.36C51.9835 11.7253 50.4902 12.408 49.0395 12.408C47.6742 12.408 46.2662 11.9813 44.8155 11.128C43.4502 10.2747 41.9142 9.336 40.2075 8.312C38.5862 7.28799 36.7942 6.34933 34.8315 5.49599C32.9542 4.64266 30.8208 4.216 28.4315 4.216C24.7622 4.216 21.5195 5.15466 18.7035 7.032C15.8875 8.82399 13.5835 11.512 11.7915 15.096C10.0848 18.5947 8.9755 22.9893 8.4635 28.28C7.9515 33.4853 8.2075 39.544 9.2315 46.456C10.4262 44.0667 11.9195 41.976 13.7115 40.184C15.5035 38.3067 17.4235 36.728 19.4715 35.448C21.6048 34.168 23.8235 33.1867 26.1275 32.504C28.4315 31.8213 30.6502 31.48 32.7835 31.48C36.3675 31.48 39.5248 32.4187 42.2555 34.296C45.0715 36.088 46.9915 38.9893 48.0155 43C45.7968 40.7813 43.2368 39.2027 40.3355 38.264C37.5195 37.3253 34.6182 36.856 31.6315 36.856C29.3275 36.856 27.0662 37.112 24.8475 37.624C22.6288 38.136 20.5382 38.904 18.5755 39.928C16.6128 40.8667 14.8208 42.0613 13.1995 43.512C11.6635 44.8773 10.4262 46.456 9.4875 48.248C10.0848 51.832 10.9382 55.7573 12.0475 60.024C13.1568 64.2053 14.6928 68.088 16.6555 71.672C18.6182 75.256 21.1355 78.2853 24.2075 80.76C27.2795 83.1493 31.1195 84.344 35.7275 84.344C37.8608 84.344 40.2928 84.0027 43.0235 83.32C45.7542 82.552 48.0155 81.3147 49.8075 79.608C51.6848 77.9013 53.0928 75.896 54.0315 73.592C54.9702 71.288 55.4395 68.7707 55.4395 66.04C55.4395 63.3093 54.9275 60.536 53.9035 57.72C56.2075 61.2187 57.4875 64.9733 57.7435 68.984C57.9995 72.9093 57.2742 76.5787 55.5675 79.992C53.9462 83.32 51.3435 86.0933 47.7595 88.312C44.1755 90.5307 39.6102 91.64 34.0635 91.64C28.7728 91.64 24.0368 90.4453 19.8555 88.056C15.6742 85.6667 12.1328 82.424 9.2315 78.328C6.4155 74.232 4.2395 69.4107 2.7035 63.864C1.25283 58.3173 0.5275 52.4293 0.5275 46.2ZM60.2175 89.464C61.7535 86.392 63.1615 84.2587 64.4415 83.064C65.8068 81.8693 67.0868 81.272 68.2815 81.272C69.4762 81.272 70.6282 81.6987 71.7375 82.552C72.9322 83.32 74.1695 84.216 75.4495 85.24C76.8148 86.1787 78.2655 87.0747 79.8015 87.928C81.3375 88.696 83.0442 89.08 84.9215 89.08C86.9695 89.08 88.7188 88.7813 90.1695 88.184C91.7055 87.5013 92.9428 86.648 93.8815 85.624C94.8202 84.6 95.5028 83.448 95.9295 82.168C96.3562 80.888 96.5695 79.5653 96.5695 78.2C96.5695 75.4693 95.7162 72.9947 94.0095 70.776C92.3028 68.5573 90.1695 66.4667 87.6095 64.504C85.0495 62.5413 82.2762 60.6213 79.2895 58.744C76.3028 56.8667 73.5295 54.9467 70.9695 52.984C68.4095 50.936 66.2762 48.7173 64.5695 46.328C62.8628 43.9387 62.0095 41.2507 62.0095 38.264C62.0095 36.5573 62.2228 34.9787 62.6495 33.528C63.1615 31.992 63.9722 30.6693 65.0815 29.56C66.2762 28.3653 67.8975 27.4693 69.9455 26.872C71.9935 26.1893 74.5962 25.848 77.7535 25.848C82.9588 25.848 87.4388 27.4267 91.1935 30.584C95.0335 33.656 98.4468 37.5387 101.434 42.232C104.42 46.9253 107.108 52.0027 109.498 57.464C111.972 62.9253 114.49 68.0027 117.05 72.696C119.61 77.3893 122.34 81.3147 125.242 84.472C128.228 87.544 131.684 89.08 135.61 89.08C137.658 89.08 139.407 88.7813 140.858 88.184C142.394 87.5013 143.631 86.648 144.57 85.624C145.508 84.6 146.191 83.448 146.618 82.168C147.044 80.888 147.258 79.5653 147.258 78.2C147.258 75.4693 146.404 72.9947 144.698 70.776C142.991 68.5573 140.858 66.4667 138.298 64.504C135.738 62.5413 132.964 60.6213 129.978 58.744C126.991 56.8667 124.218 54.9467 121.658 52.984C119.098 50.936 116.964 48.7173 115.258 46.328C113.551 43.9387 112.698 41.2507 112.698 38.264C112.698 36.5573 112.911 34.9787 113.338 33.528C113.85 31.992 114.66 30.6693 115.77 29.56C116.964 28.3653 118.543 27.4693 120.506 26.872C122.554 26.1893 125.156 25.848 128.314 25.848C130.02 25.848 131.684 26.0187 133.306 26.36C134.927 26.7013 136.506 27.128 138.042 27.64C139.578 28.0667 141.071 28.4507 142.522 28.792C144.058 29.1333 145.508 29.304 146.874 29.304C147.812 29.304 148.751 29.2187 149.69 29.048C150.628 28.792 151.524 28.3653 152.378 27.768C150.842 30.7547 149.434 32.8453 148.154 34.04C146.959 35.2347 145.764 35.832 144.57 35.832C143.46 35.832 142.308 35.448 141.114 34.68C140.004 33.8267 138.81 32.9307 137.53 31.992C136.335 30.968 134.97 30.072 133.434 29.304C131.983 28.4507 130.276 28.024 128.314 28.024C125.327 28.024 123.151 28.792 121.786 30.328C120.506 31.7787 119.866 33.5707 119.866 35.704C119.866 38.0933 120.719 40.312 122.426 42.36C124.218 44.408 126.394 46.4133 128.954 48.376C131.599 50.3387 134.458 52.3013 137.53 54.264C140.602 56.1413 143.418 58.1893 145.978 60.408C148.623 62.5413 150.799 64.888 152.506 67.448C154.298 69.9227 155.194 72.7387 155.194 75.896C155.194 78.2853 154.639 80.4613 153.53 82.424C152.506 84.3013 151.012 85.9227 149.05 87.288C147.172 88.568 144.911 89.5493 142.266 90.232C139.62 90.9147 136.719 91.256 133.562 91.256C129.636 91.256 126.138 89.72 123.066 86.648C120.079 83.4907 117.263 79.5653 114.618 74.872C112.058 70.1787 109.54 65.1013 107.066 59.64C104.591 54.1787 101.903 49.1013 99.0015 44.408C96.1855 39.7147 93.0708 35.832 89.6575 32.76C86.2442 29.6027 82.2335 28.024 77.6255 28.024C74.6388 28.024 72.4628 28.792 71.0975 30.328C69.8175 31.7787 69.1775 33.5707 69.1775 35.704C69.1775 38.0933 70.0308 40.312 71.7375 42.36C73.5295 44.408 75.7055 46.4133 78.2655 48.376C80.9108 50.3387 83.7695 52.3013 86.8415 54.264C89.9135 56.1413 92.7295 58.1893 95.2895 60.408C97.9348 62.5413 100.111 64.888 101.818 67.448C103.61 69.9227 104.506 72.7387 104.506 75.896C104.506 80.76 102.5 84.5573 98.4895 87.288C94.4788 89.9333 89.2735 91.256 82.8735 91.256C81.2522 91.256 79.6735 91.0853 78.1375 90.744C76.6015 90.4027 75.1082 90.0187 73.6575 89.592C72.2922 89.08 70.9268 88.6533 69.5615 88.312C68.1962 87.9707 66.8735 87.8 65.5935 87.8C64.6548 87.8 63.7588 87.928 62.9055 88.184C62.0522 88.3547 61.1562 88.7813 60.2175 89.464ZM187.509 91.256C183.242 91.256 179.402 90.4027 175.989 88.696C172.661 86.9893 169.845 84.6427 167.541 81.656C165.237 78.6693 163.445 75.2133 162.165 71.288C160.97 67.2773 160.373 63.0107 160.373 58.488C160.373 53.112 161.013 48.4187 162.293 44.408C163.573 40.312 165.322 36.8987 167.541 34.168C169.845 31.352 172.533 29.2613 175.605 27.896C178.677 26.4453 181.962 25.72 185.461 25.72C189.983 25.72 193.781 26.5307 196.853 28.152C200.01 29.7733 202.271 31.864 203.637 34.424C205.002 36.984 205.429 39.8427 204.917 43C204.405 46.072 202.783 49.0587 200.053 51.96C197.407 54.8613 193.567 57.5067 188.533 59.896C183.498 62.2853 177.141 64.0347 169.461 65.144C171.253 71.8 174.069 76.7067 177.909 79.864C181.749 83.0213 185.973 84.6 190.581 84.6C193.909 84.6 197.279 83.832 200.693 82.296C204.106 80.6747 207.306 78.328 210.293 75.256C209.354 77.1333 208.074 79.0533 206.453 81.016C204.831 82.8933 202.997 84.6 200.949 86.136C198.986 87.672 196.853 88.9093 194.549 89.848C192.245 90.7867 189.898 91.256 187.509 91.256ZM185.333 27.896C182.943 27.896 180.469 28.4933 177.909 29.688C175.349 30.8827 173.173 32.8453 171.381 35.576C169.589 38.3067 168.351 41.8907 167.669 46.328C166.986 50.68 167.327 56.056 168.693 62.456C168.778 62.5413 168.821 62.6693 168.821 62.84C174.453 62.328 179.189 61.0907 183.029 59.128C186.869 57.1653 189.941 54.904 192.245 52.344C194.549 49.784 196.042 47.0533 196.725 44.152C197.493 41.2507 197.578 38.6053 196.981 36.216C196.383 33.8267 195.061 31.864 193.013 30.328C191.05 28.7067 188.49 27.896 185.333 27.896ZM216.028 26.616H223.964V55.544C224.817 51.5333 225.969 47.736 227.42 44.152C228.87 40.4827 230.577 37.2827 232.54 34.552C234.588 31.8213 236.849 29.688 239.324 28.152C241.884 26.5307 244.657 25.72 247.644 25.72C251.142 25.72 253.702 26.2747 255.324 27.384C257.03 28.4933 258.097 30.0293 258.524 31.992C259.036 33.9547 259.078 36.3013 258.652 39.032C258.225 41.7627 257.67 44.7067 256.988 47.864C256.39 51.0213 255.836 54.392 255.324 57.976C254.812 61.4747 254.726 65.0587 255.068 68.728C255.409 72.3973 256.305 76.0667 257.756 79.736C259.206 83.32 261.553 86.8187 264.796 90.232H255.964C252.38 85.368 249.99 80.5467 248.796 75.768C247.686 70.9893 247.217 66.424 247.388 62.072C247.558 57.6347 248.07 53.5387 248.924 49.784C249.777 45.944 250.417 42.6587 250.844 39.928C251.356 37.112 251.313 34.936 250.716 33.4C250.118 31.7787 248.454 30.968 245.724 30.968C242.566 30.968 239.75 31.992 237.276 34.04C234.886 36.0027 232.796 38.648 231.003 41.976C229.212 45.304 227.718 49.1867 226.524 53.624C225.329 58.0613 224.476 62.712 223.964 67.576V90.232H216.028V26.616ZM265.748 58.488C265.748 47.736 267.753 39.5867 271.764 34.04C275.774 28.4933 281.278 25.72 288.276 25.72C289.982 25.72 291.732 25.8907 293.524 26.232C295.401 26.5733 297.236 27 299.028 27.512C300.905 27.9387 302.74 28.3227 304.532 28.664C306.324 29.0053 308.03 29.176 309.652 29.176C310.761 29.176 311.828 29.0907 312.852 28.92C313.876 28.664 314.814 28.2373 315.668 27.64C313.961 31.224 312.297 33.6987 310.676 35.064C309.054 36.4293 307.476 37.112 305.94 37.112C304.404 37.112 302.91 36.6427 301.46 35.704C300.009 34.68 298.558 33.6133 297.108 32.504C295.657 31.3093 294.206 30.2427 292.756 29.304C291.305 28.3653 289.812 27.896 288.276 27.896C285.886 27.896 283.54 28.4933 281.236 29.688C278.932 30.8827 277.012 32.8453 275.476 35.576C274.025 38.3067 273.086 41.8907 272.66 46.328C272.233 50.68 272.702 56.056 274.068 62.456C275.774 70.0507 278.633 75.64 282.644 79.224C286.654 82.808 291.092 84.6 295.956 84.6C299.284 84.6 302.654 83.7893 306.068 82.168C309.481 80.5467 312.681 78.2427 315.668 75.256C314.729 77.1333 313.449 79.0533 311.828 81.016C310.206 82.8933 308.372 84.6 306.324 86.136C304.361 87.672 302.228 88.9093 299.924 89.848C297.62 90.7867 295.273 91.256 292.884 91.256C288.617 91.256 284.777 90.4027 281.364 88.696C278.036 86.9893 275.22 84.6427 272.916 81.656C270.612 78.6693 268.82 75.2133 267.54 71.288C266.345 67.2773 265.748 63.0107 265.748 58.488ZM345.634 91.256C341.367 91.256 337.527 90.4027 334.114 88.696C330.786 86.9893 327.97 84.6427 325.666 81.656C323.362 78.6693 321.57 75.2133 320.29 71.288C319.095 67.2773 318.498 63.0107 318.498 58.488C318.498 53.112 319.138 48.4187 320.418 44.408C321.698 40.312 323.447 36.8987 325.666 34.168C327.97 31.352 330.658 29.2613 333.73 27.896C336.802 26.4453 340.087 25.72 343.586 25.72C348.108 25.72 351.906 26.5307 354.978 28.152C358.135 29.7733 360.396 31.864 361.762 34.424C363.127 36.984 363.554 39.8427 363.042 43C362.53 46.072 360.908 49.0587 358.178 51.96C355.532 54.8613 351.692 57.5067 346.658 59.896C341.623 62.2853 335.266 64.0347 327.586 65.144C329.378 71.8 332.194 76.7067 336.034 79.864C339.874 83.0213 344.098 84.6 348.706 84.6C352.034 84.6 355.404 83.832 358.818 82.296C362.231 80.6747 365.431 78.328 368.418 75.256C367.479 77.1333 366.199 79.0533 364.578 81.016C362.956 82.8933 361.122 84.6 359.074 86.136C357.111 87.672 354.978 88.9093 352.674 89.848C350.37 90.7867 348.023 91.256 345.634 91.256ZM343.458 27.896C341.068 27.896 338.594 28.4933 336.034 29.688C333.474 30.8827 331.298 32.8453 329.506 35.576C327.714 38.3067 326.476 41.8907 325.794 46.328C325.111 50.68 325.452 56.056 326.818 62.456C326.903 62.5413 326.946 62.6693 326.946 62.84C332.578 62.328 337.314 61.0907 341.154 59.128C344.994 57.1653 348.066 54.904 350.37 52.344C352.674 49.784 354.167 47.0533 354.85 44.152C355.618 41.2507 355.703 38.6053 355.106 36.216C354.508 33.8267 353.186 31.864 351.138 30.328C349.175 28.7067 346.615 27.896 343.458 27.896Z" fill="black"/>
</svg>
