<svg width="2044" height="119" viewBox="0 0 2044 119" fill="none" xmlns="http://www.w3.org/2000/svg">
<path d="M0.215 2.656H19.543C24.663 2.656 29.1003 3.168 32.855 4.19199C36.6097 5.13066 39.6817 6.496 42.071 8.28799C44.5457 10.08 46.3803 12.1707 47.575 14.56C48.7697 16.9493 49.367 19.552 49.367 22.368C49.367 25.5253 48.7697 28.1707 47.575 30.304C46.3803 32.352 44.5883 34.144 42.199 35.68C39.895 37.1307 36.951 38.4533 33.367 39.648C29.8683 40.7573 25.815 41.9947 21.207 43.36C20.2683 43.616 19.415 43.9147 18.647 44.256C17.879 44.512 17.495 44.7253 17.495 44.896C17.495 45.2373 18.0497 45.408 19.159 45.408C20.3537 45.3227 21.8897 45.28 23.767 45.28C26.1563 45.28 28.887 45.4507 31.959 45.792C35.031 46.1333 37.9323 47.072 40.663 48.608C43.3937 50.0587 45.6977 52.2773 47.575 55.264C49.4523 58.1653 50.391 62.2187 50.391 67.424C50.391 70.0693 50.4337 72.5013 50.519 74.72C50.6897 76.9387 51.031 79.0293 51.543 80.992C52.055 82.9547 52.8657 84.832 53.975 86.624C55.0843 88.3307 56.663 90.0373 58.711 91.744H48.599C45.3563 88.0747 43.351 84.2773 42.583 80.352C41.9003 76.4267 41.559 72.1173 41.559 67.424C41.559 62.9013 40.8763 59.36 39.511 56.8C38.231 54.24 36.567 52.32 34.519 51.04C32.5563 49.76 30.423 48.9493 28.119 48.608C25.815 48.1813 23.639 47.8827 21.591 47.712C19.6283 47.5413 17.9643 47.2853 16.599 46.944C15.319 46.6027 14.679 45.8347 14.679 44.64C14.679 44.0427 15.063 43.616 15.831 43.36C16.6843 43.0187 17.751 42.592 19.031 42.08C22.615 40.7147 25.7297 39.4347 28.375 38.24C31.1057 36.96 33.367 35.6373 35.159 34.272C36.951 32.9067 38.2737 31.4133 39.127 29.792C40.0657 28.0853 40.535 26.1227 40.535 23.904C40.535 20.4907 40.023 17.632 38.999 15.328C37.975 12.9387 36.5243 11.0187 34.647 9.56799C32.7697 8.11733 30.551 7.09333 27.991 6.49599C25.431 5.81333 22.6577 5.47199 19.671 5.47199H9.175V91.744H0.215V2.656ZM86.071 92.256C81.8043 92.256 77.9643 91.4027 74.551 89.696C71.223 87.9893 68.407 85.6427 66.103 82.656C63.799 79.6693 62.007 76.2133 60.727 72.288C59.5323 68.2773 58.935 64.0107 58.935 59.488C58.935 54.112 59.575 49.4187 60.855 45.408C62.135 41.312 63.8843 37.8987 66.103 35.168C68.407 32.352 71.095 30.2613 74.167 28.896C77.239 27.4453 80.5243 26.72 84.023 26.72C88.5457 26.72 92.343 27.5307 95.415 29.152C98.5723 30.7733 100.834 32.864 102.199 35.424C103.564 37.984 103.991 40.8427 103.479 44C102.967 47.072 101.346 50.0587 98.615 52.96C95.9697 55.8613 92.1297 58.5067 87.095 60.896C82.0603 63.2853 75.703 65.0347 68.023 66.144C69.815 72.8 72.631 77.7067 76.471 80.864C80.311 84.0213 84.535 85.6 89.143 85.6C92.471 85.6 95.8417 84.832 99.255 83.296C102.668 81.6747 105.868 79.328 108.855 76.256C107.916 78.1333 106.636 80.0533 105.015 82.016C103.394 83.8933 101.559 85.6 99.511 87.136C97.5483 88.672 95.415 89.9093 93.111 90.848C90.807 91.7867 88.4603 92.256 86.071 92.256ZM83.895 28.896C81.5057 28.896 79.031 29.4933 76.471 30.688C73.911 31.8827 71.735 33.8453 69.943 36.576C68.151 39.3067 66.9137 42.8907 66.231 47.328C65.5483 51.68 65.8897 57.056 67.255 63.456C67.3403 63.5413 67.383 63.6693 67.383 63.84C73.015 63.328 77.751 62.0907 81.591 60.128C85.431 58.1653 88.503 55.904 90.807 53.344C93.111 50.784 94.6043 48.0533 95.287 45.152C96.055 42.2507 96.1403 39.6053 95.543 37.216C94.9457 34.8267 93.623 32.864 91.575 31.328C89.6123 29.7067 87.0523 28.896 83.895 28.896ZM111.06 59.488C111.06 54.9653 111.7 50.6987 112.98 46.688C114.26 42.6773 116.009 39.2213 118.228 36.32C120.447 33.3333 123.049 30.9867 126.036 29.28C129.023 27.5733 132.265 26.72 135.764 26.72C140.201 26.72 143.871 27.7867 146.772 29.92C149.759 32.0533 151.977 34.784 153.428 38.112V0.607994H161.492V69.216C161.492 71.0933 161.62 72.9707 161.876 74.848C162.132 76.7253 162.601 78.56 163.284 80.352C163.967 82.144 164.905 83.936 166.1 85.728C167.38 87.52 169.001 89.3547 170.964 91.232H161.364C159.145 88.3307 157.439 85.3013 156.244 82.144C154.793 85.1307 152.617 87.4347 149.716 89.056C146.9 90.592 143.06 91.36 138.196 91.36C133.929 91.36 130.089 90.5493 126.676 88.928C123.348 87.3067 120.532 85.088 118.228 82.272C115.924 79.3707 114.132 76 112.852 72.16C111.657 68.2347 111.06 64.0107 111.06 59.488ZM131.796 29.664C130.175 29.92 128.34 30.6453 126.292 31.84C124.329 32.9493 122.623 34.784 121.172 37.344C119.721 39.904 118.697 43.3173 118.1 47.584C117.588 51.7653 118.015 57.056 119.38 63.456C120.575 68.7467 121.94 73.056 123.476 76.384C125.012 79.712 126.633 82.3573 128.34 84.32C130.047 86.1973 131.753 87.4773 133.46 88.16C135.252 88.8427 136.916 89.184 138.452 89.184C139.135 89.184 139.775 89.1413 140.372 89.056C140.969 88.9707 141.524 88.8427 142.036 88.672C144.084 88.16 145.876 87.3067 147.412 86.112C149.033 84.9173 150.313 83.1253 151.252 80.736C152.276 78.2613 152.959 75.0187 153.3 71.008C153.641 66.912 153.556 61.7493 153.044 55.52C152.532 49.0347 151.508 44 149.972 40.416C148.521 36.7467 146.772 34.0587 144.724 32.352C142.676 30.6453 140.5 29.7067 138.196 29.536C135.977 29.28 133.844 29.3227 131.796 29.664ZM198.321 92.256C194.054 92.256 190.214 91.4027 186.801 89.696C183.473 87.9893 180.657 85.6427 178.353 82.656C176.049 79.6693 174.257 76.2133 172.977 72.288C171.782 68.2773 171.185 64.0107 171.185 59.488C171.185 54.112 171.825 49.4187 173.105 45.408C174.385 41.312 176.134 37.8987 178.353 35.168C180.657 32.352 183.345 30.2613 186.417 28.896C189.489 27.4453 192.774 26.72 196.273 26.72C200.796 26.72 204.593 27.5307 207.665 29.152C210.822 30.7733 213.084 32.864 214.449 35.424C215.814 37.984 216.241 40.8427 215.729 44C215.217 47.072 213.596 50.0587 210.865 52.96C208.22 55.8613 204.38 58.5067 199.345 60.896C194.31 63.2853 187.953 65.0347 180.273 66.144C182.065 72.8 184.881 77.7067 188.721 80.864C192.561 84.0213 196.785 85.6 201.393 85.6C204.721 85.6 208.092 84.832 211.505 83.296C214.918 81.6747 218.118 79.328 221.105 76.256C220.166 78.1333 218.886 80.0533 217.265 82.016C215.644 83.8933 213.809 85.6 211.761 87.136C209.798 88.672 207.665 89.9093 205.361 90.848C203.057 91.7867 200.71 92.256 198.321 92.256ZM196.145 28.896C193.756 28.896 191.281 29.4933 188.721 30.688C186.161 31.8827 183.985 33.8453 182.193 36.576C180.401 39.3067 179.164 42.8907 178.481 47.328C177.798 51.68 178.14 57.056 179.505 63.456C179.59 63.5413 179.633 63.6693 179.633 63.84C185.265 63.328 190.001 62.0907 193.841 60.128C197.681 58.1653 200.753 55.904 203.057 53.344C205.361 50.784 206.854 48.0533 207.537 45.152C208.305 42.2507 208.39 39.6053 207.793 37.216C207.196 34.8267 205.873 32.864 203.825 31.328C201.862 29.7067 199.302 28.896 196.145 28.896ZM226.84 91.232V17.888C226.84 12.5973 228.589 8.416 232.088 5.34399C235.672 2.18666 240.835 0.607994 247.576 0.607994C249.283 0.607994 250.989 0.949328 252.696 1.632C254.403 2.22933 256.152 2.91199 257.944 3.67999C259.736 4.36266 261.571 5.04533 263.448 5.728C265.411 6.32533 267.501 6.62399 269.72 6.62399C271.939 6.62399 274.285 6.19733 276.76 5.34399C276.76 7.05066 276.504 8.58666 275.992 9.952C275.48 11.3173 274.797 12.4693 273.944 13.408C273.091 14.2613 272.195 14.944 271.256 15.456C270.317 15.8827 269.379 16.096 268.44 16.096C266.051 16.096 264.003 15.4133 262.296 14.048C260.675 12.6827 259.096 11.1893 257.56 9.56799C256.109 7.86133 254.573 6.32533 252.952 4.96C251.416 3.59466 249.496 2.91199 247.192 2.91199C244.461 2.91199 242.243 3.424 240.536 4.448C238.915 5.472 237.677 6.66666 236.824 8.032C235.971 9.39733 235.416 10.7627 235.16 12.128C234.904 13.408 234.776 14.3467 234.776 14.944V35.168C235.288 34.144 236.099 33.1627 237.208 32.224C238.403 31.2 239.768 30.304 241.304 29.536C242.84 28.768 244.504 28.1707 246.296 27.744C248.088 27.232 249.923 26.976 251.8 26.976C254.104 26.976 256.323 27.4027 258.456 28.256C260.675 29.1093 262.68 30.56 264.472 32.608L272.408 27.616V69.216C272.493 71.0933 272.664 72.9707 272.92 74.848C273.176 76.7253 273.645 78.56 274.328 80.352C275.011 82.144 275.949 83.936 277.144 85.728C278.424 87.52 280.045 89.3547 282.008 91.232H272.408C269.251 86.9653 267.117 82.8693 266.008 78.944C264.984 74.9333 264.472 70.752 264.472 66.4V32.864C262.68 32.1813 260.845 31.712 258.968 31.456C257.176 31.2 255.384 31.072 253.592 31.072C251.288 31.072 249.069 31.2853 246.936 31.712C244.803 32.0533 242.883 32.5227 241.176 33.12C239.555 33.7173 238.147 34.4427 236.952 35.296C235.843 36.064 235.117 36.832 234.776 37.6V91.232H226.84ZM286.465 27.616H294.401V56.544C295.254 52.5333 296.406 48.736 297.857 45.152C299.308 41.4827 301.014 38.2827 302.977 35.552C305.025 32.8213 307.286 30.688 309.761 29.152C312.321 27.5307 315.094 26.72 318.081 26.72C321.58 26.72 324.14 27.2747 325.761 28.384C327.468 29.4933 328.534 31.0293 328.961 32.992C329.473 34.9547 329.516 37.3013 329.089 40.032C328.662 42.7627 328.108 45.7067 327.425 48.864C326.828 52.0213 326.273 55.392 325.761 58.976C325.249 62.4747 325.164 66.0587 325.505 69.728C325.846 73.3973 326.742 77.0667 328.193 80.736C329.644 84.32 331.99 87.8187 335.233 91.232H326.401C322.817 86.368 320.428 81.5467 319.233 76.768C318.124 71.9893 317.654 67.424 317.825 63.072C317.996 58.6347 318.508 54.5387 319.361 50.784C320.214 46.944 320.854 43.6587 321.281 40.928C321.793 38.112 321.75 35.936 321.153 34.4C320.556 32.7787 318.892 31.968 316.161 31.968C313.004 31.968 310.188 32.992 307.713 35.04C305.324 37.0027 303.233 39.648 301.441 42.976C299.649 46.304 298.156 50.1867 296.961 54.624C295.766 59.0613 294.913 63.712 294.401 68.576V91.232H286.465V27.616ZM343.737 16.096C341.774 16.096 340.11 15.456 338.745 14.176C337.465 12.8107 336.825 11.1467 336.825 9.184C336.825 7.22133 337.465 5.6 338.745 4.31999C340.11 2.95466 341.774 2.272 343.737 2.272C345.7 2.272 347.364 2.95466 348.729 4.31999C350.094 5.6 350.777 7.22133 350.777 9.184C350.777 11.1467 350.094 12.8107 348.729 14.176C347.364 15.456 345.7 16.096 343.737 16.096ZM347.705 27.616V69.216C347.79 71.0933 347.961 72.9707 348.217 74.848C348.473 76.7253 348.942 78.56 349.625 80.352C350.308 82.144 351.246 83.936 352.441 85.728C353.721 87.52 355.342 89.3547 357.305 91.232H347.705C344.548 86.9653 342.414 82.8693 341.305 78.944C340.281 74.9333 339.769 70.752 339.769 66.4V27.616H347.705ZM361.84 27.616H369.776V56.544C370.629 52.5333 371.781 48.736 373.232 45.152C374.683 41.4827 376.389 38.2827 378.352 35.552C380.4 32.8213 382.661 30.688 385.136 29.152C387.696 27.5307 390.469 26.72 393.456 26.72C396.955 26.72 399.515 27.2747 401.136 28.384C402.843 29.4933 403.909 31.0293 404.336 32.992C404.848 34.9547 404.891 37.3013 404.464 40.032C404.037 42.7627 403.483 45.7067 402.8 48.864C402.203 52.0213 401.648 55.392 401.136 58.976C400.624 62.4747 400.539 66.0587 400.88 69.728C401.221 73.3973 402.117 77.0667 403.568 80.736C405.019 84.32 407.365 87.8187 410.608 91.232H401.776C398.192 86.368 395.803 81.5467 394.608 76.768C393.499 71.9893 393.029 67.424 393.2 63.072C393.371 58.6347 393.883 54.5387 394.736 50.784C395.589 46.944 396.229 43.6587 396.656 40.928C397.168 38.112 397.125 35.936 396.528 34.4C395.931 32.7787 394.267 31.968 391.536 31.968C388.379 31.968 385.563 32.992 383.088 35.04C380.699 37.0027 378.608 39.648 376.816 42.976C375.024 46.304 373.531 50.1867 372.336 54.624C371.141 59.0613 370.288 63.712 369.776 68.576V91.232H361.84V27.616ZM438.696 91.36C434.429 91.36 430.589 90.5493 427.176 88.928C423.848 87.3067 421.032 85.088 418.728 82.272C416.424 79.3707 414.632 76 413.352 72.16C412.157 68.2347 411.56 64.0107 411.56 59.488C411.56 54.9653 412.2 50.6987 413.48 46.688C414.76 42.6773 416.509 39.2213 418.728 36.32C420.947 33.3333 423.549 30.9867 426.536 29.28C429.523 27.5733 432.765 26.72 436.264 26.72C441.299 26.72 445.352 28.0427 448.424 30.688C451.581 33.3333 453.757 36.704 454.952 40.8V27.616H461.992V101.088C461.992 103.648 461.821 105.995 461.48 108.128C461.224 110.261 460.669 112.053 459.816 113.504C459.048 115.04 457.939 116.192 456.488 116.96C455.037 117.813 453.16 118.24 450.856 118.24C448.125 118.24 445.864 117.941 444.072 117.344C442.28 116.747 440.531 116.107 438.824 115.424C437.203 114.741 435.411 114.101 433.448 113.504C431.485 112.907 428.925 112.608 425.768 112.608C424.403 112.608 422.867 112.651 421.16 112.736C419.539 112.907 417.747 113.163 415.784 113.504C416.381 112.139 417.192 110.944 418.216 109.92C419.069 108.981 420.179 108.128 421.544 107.36C422.995 106.677 424.787 106.336 426.92 106.336C429.736 106.336 432.211 106.848 434.344 107.872C436.563 108.896 438.568 110.005 440.36 111.2C442.237 112.395 443.987 113.504 445.608 114.528C447.315 115.552 449.021 116.064 450.728 116.064C452.093 116.064 452.947 115.68 453.288 114.912C453.715 114.144 453.928 113.163 453.928 111.968V86.112C452.307 87.8187 450.259 89.1413 447.784 90.08C445.309 90.9333 442.28 91.36 438.696 91.36ZM432.296 29.664C430.675 29.92 428.84 30.6453 426.792 31.84C424.829 32.9493 423.123 34.784 421.672 37.344C420.221 39.904 419.197 43.3173 418.6 47.584C418.088 51.7653 418.515 57.056 419.88 63.456C421.075 68.7467 422.44 73.056 423.976 76.384C425.512 79.712 427.133 82.3573 428.84 84.32C430.547 86.1973 432.253 87.4773 433.96 88.16C435.752 88.8427 437.416 89.184 438.952 89.184C439.635 89.184 440.275 89.1413 440.872 89.056C441.469 88.9707 442.024 88.8427 442.536 88.672C444.584 88.16 446.376 87.3067 447.912 86.112C449.533 84.9173 450.813 83.1253 451.752 80.736C452.776 78.2613 453.459 75.0187 453.8 71.008C454.141 66.912 454.056 61.7493 453.544 55.52C453.032 49.0347 452.008 44 450.472 40.416C449.021 36.7467 447.272 34.0587 445.224 32.352C443.176 30.6453 441 29.7067 438.696 29.536C436.477 29.28 434.344 29.3227 432.296 29.664ZM501.715 27.616H509.651V55.264C510.419 51.424 511.443 47.7973 512.723 44.384C514.088 40.8853 515.667 37.856 517.459 35.296C519.336 32.6507 521.47 30.56 523.859 29.024C526.248 27.488 528.894 26.72 531.795 26.72C534.952 26.72 537.342 27.1893 538.963 28.128C540.584 28.9813 541.694 30.2187 542.291 31.84C542.888 33.376 543.102 35.2533 542.931 37.472C542.76 39.6907 542.419 42.1227 541.907 44.768C543.87 39.4773 546.43 35.168 549.587 31.84C552.83 28.4267 556.67 26.72 561.107 26.72C564.691 26.72 567.294 27.2747 568.915 28.384C570.622 29.4933 571.688 31.0293 572.115 32.992C572.542 34.9547 572.542 37.3013 572.115 40.032C571.774 42.7627 571.262 45.7067 570.579 48.864C569.982 52.0213 569.427 55.392 568.915 58.976C568.403 62.4747 568.318 66.0587 568.659 69.728C569 73.3973 569.896 77.0667 571.347 80.736C572.798 84.32 575.144 87.8187 578.387 91.232H569.427C565.843 86.368 563.496 81.5467 562.387 76.768C561.278 71.9893 560.766 67.424 560.851 63.072C561.022 58.6347 561.534 54.5387 562.387 50.784C563.326 46.944 564.008 43.6587 564.435 40.928C564.947 38.112 564.904 35.936 564.307 34.4C563.71 32.7787 562.046 31.968 559.315 31.968C556.158 31.968 553.342 33.0773 550.867 35.296C548.392 37.4293 546.302 40.1173 544.595 43.36C542.888 46.5173 541.566 49.9307 540.627 53.6C539.774 57.2693 539.262 60.64 539.091 63.712C538.92 68.32 539.475 72.9707 540.755 77.664C542.035 82.3573 544.766 86.88 548.947 91.232H540.115C536.531 86.368 534.142 81.5467 532.947 76.768C531.838 71.9893 531.368 67.424 531.539 63.072C531.71 58.6347 532.222 54.5387 533.075 50.784C533.928 46.944 534.568 43.6587 534.995 40.928C535.507 38.112 535.464 35.936 534.867 34.4C534.27 32.7787 532.606 31.968 529.875 31.968C526.718 31.968 523.987 32.992 521.683 35.04C519.379 37.0027 517.416 39.648 515.795 42.976C514.259 46.304 512.979 50.1867 511.955 54.624C510.931 59.0613 510.163 63.712 509.651 68.576V91.232H501.715V27.616ZM606.446 92.256C602.179 92.256 598.339 91.4027 594.926 89.696C591.598 87.9893 588.782 85.6427 586.478 82.656C584.174 79.6693 582.382 76.2133 581.102 72.288C579.907 68.2773 579.31 64.0107 579.31 59.488C579.31 54.112 579.95 49.4187 581.23 45.408C582.51 41.312 584.259 37.8987 586.478 35.168C588.782 32.352 591.47 30.2613 594.542 28.896C597.614 27.4453 600.899 26.72 604.398 26.72C608.921 26.72 612.718 27.5307 615.79 29.152C618.947 30.7733 621.209 32.864 622.574 35.424C623.939 37.984 624.366 40.8427 623.854 44C623.342 47.072 621.721 50.0587 618.99 52.96C616.345 55.8613 612.505 58.5067 607.47 60.896C602.435 63.2853 596.078 65.0347 588.398 66.144C590.19 72.8 593.006 77.7067 596.846 80.864C600.686 84.0213 604.91 85.6 609.518 85.6C612.846 85.6 616.217 84.832 619.63 83.296C623.043 81.6747 626.243 79.328 629.23 76.256C628.291 78.1333 627.011 80.0533 625.39 82.016C623.769 83.8933 621.934 85.6 619.886 87.136C617.923 88.672 615.79 89.9093 613.486 90.848C611.182 91.7867 608.835 92.256 606.446 92.256ZM604.27 28.896C601.881 28.896 599.406 29.4933 596.846 30.688C594.286 31.8827 592.11 33.8453 590.318 36.576C588.526 39.3067 587.289 42.8907 586.606 47.328C585.923 51.68 586.265 57.056 587.63 63.456C587.715 63.5413 587.758 63.6693 587.758 63.84C593.39 63.328 598.126 62.0907 601.966 60.128C605.806 58.1653 608.878 55.904 611.182 53.344C613.486 50.784 614.979 48.0533 615.662 45.152C616.43 42.2507 616.515 39.6053 615.918 37.216C615.321 34.8267 613.998 32.864 611.95 31.328C609.987 29.7067 607.427 28.896 604.27 28.896ZM629.405 90.464C630.941 87.392 632.349 85.2587 633.629 84.064C634.994 82.8693 636.274 82.272 637.469 82.272C638.664 82.272 639.816 82.6987 640.925 83.552C642.12 84.32 643.357 85.216 644.637 86.24C646.002 87.1787 647.453 88.0747 648.989 88.928C650.525 89.696 652.232 90.08 654.109 90.08C656.157 90.08 657.906 89.7813 659.357 89.184C660.893 88.5013 662.13 87.648 663.069 86.624C664.008 85.6 664.69 84.448 665.117 83.168C665.544 81.888 665.757 80.5653 665.757 79.2C665.757 76.4693 664.904 73.9947 663.197 71.776C661.49 69.5573 659.357 67.4667 656.797 65.504C654.237 63.5413 651.464 61.6213 648.477 59.744C645.49 57.8667 642.717 55.9467 640.157 53.984C637.597 51.936 635.464 49.7173 633.757 47.328C632.05 44.9387 631.197 42.2507 631.197 39.264C631.197 37.5573 631.41 35.9787 631.837 34.528C632.349 32.992 633.16 31.6693 634.269 30.56C635.464 29.3653 637.085 28.4693 639.133 27.872C641.181 27.1893 643.784 26.848 646.941 26.848C652.146 26.848 656.626 28.4267 660.381 31.584C664.221 34.656 667.634 38.5387 670.621 43.232C673.608 47.9253 676.296 53.0027 678.685 58.464C681.16 63.9253 683.677 69.0027 686.237 73.696C688.797 78.3893 691.528 82.3147 694.429 85.472C697.416 88.544 700.872 90.08 704.797 90.08C706.845 90.08 708.594 89.7813 710.045 89.184C711.581 88.5013 712.818 87.648 713.757 86.624C714.696 85.6 715.378 84.448 715.805 83.168C716.232 81.888 716.445 80.5653 716.445 79.2C716.445 76.4693 715.592 73.9947 713.885 71.776C712.178 69.5573 710.045 67.4667 707.485 65.504C704.925 63.5413 702.152 61.6213 699.165 59.744C696.178 57.8667 693.405 55.9467 690.845 53.984C688.285 51.936 686.152 49.7173 684.445 47.328C682.738 44.9387 681.885 42.2507 681.885 39.264C681.885 37.5573 682.098 35.9787 682.525 34.528C683.037 32.992 683.848 31.6693 684.957 30.56C686.152 29.3653 687.73 28.4693 689.693 27.872C691.741 27.1893 694.344 26.848 697.501 26.848C699.208 26.848 700.872 27.0187 702.493 27.36C704.114 27.7013 705.693 28.128 707.229 28.64C708.765 29.0667 710.258 29.4507 711.709 29.792C713.245 30.1333 714.696 30.304 716.061 30.304C717 30.304 717.938 30.2187 718.877 30.048C719.816 29.792 720.712 29.3653 721.565 28.768C720.029 31.7547 718.621 33.8453 717.341 35.04C716.146 36.2347 714.952 36.832 713.757 36.832C712.648 36.832 711.496 36.448 710.301 35.68C709.192 34.8267 707.997 33.9307 706.717 32.992C705.522 31.968 704.157 31.072 702.621 30.304C701.17 29.4507 699.464 29.024 697.501 29.024C694.514 29.024 692.338 29.792 690.973 31.328C689.693 32.7787 689.053 34.5707 689.053 36.704C689.053 39.0933 689.906 41.312 691.613 43.36C693.405 45.408 695.581 47.4133 698.141 49.376C700.786 51.3387 703.645 53.3013 706.717 55.264C709.789 57.1413 712.605 59.1893 715.165 61.408C717.81 63.5413 719.986 65.888 721.693 68.448C723.485 70.9227 724.381 73.7387 724.381 76.896C724.381 79.2853 723.826 81.4613 722.717 83.424C721.693 85.3013 720.2 86.9227 718.237 88.288C716.36 89.568 714.098 90.5493 711.453 91.232C708.808 91.9147 705.906 92.256 702.749 92.256C698.824 92.256 695.325 90.72 692.253 87.648C689.266 84.4907 686.45 80.5653 683.805 75.872C681.245 71.1787 678.728 66.1013 676.253 60.64C673.778 55.1787 671.09 50.1013 668.189 45.408C665.373 40.7147 662.258 36.832 658.845 33.76C655.432 30.6027 651.421 29.024 646.813 29.024C643.826 29.024 641.65 29.792 640.285 31.328C639.005 32.7787 638.365 34.5707 638.365 36.704C638.365 39.0933 639.218 41.312 640.925 43.36C642.717 45.408 644.893 47.4133 647.453 49.376C650.098 51.3387 652.957 53.3013 656.029 55.264C659.101 57.1413 661.917 59.1893 664.477 61.408C667.122 63.5413 669.298 65.888 671.005 68.448C672.797 70.9227 673.693 73.7387 673.693 76.896C673.693 81.76 671.688 85.5573 667.677 88.288C663.666 90.9333 658.461 92.256 652.061 92.256C650.44 92.256 648.861 92.0853 647.325 91.744C645.789 91.4027 644.296 91.0187 642.845 90.592C641.48 90.08 640.114 89.6533 638.749 89.312C637.384 88.9707 636.061 88.8 634.781 88.8C633.842 88.8 632.946 88.928 632.093 89.184C631.24 89.3547 630.344 89.7813 629.405 90.464ZM729.56 75.36C729.56 71.6907 730.413 68.832 732.12 66.784C733.827 64.6507 736.003 62.9867 738.648 61.792C741.379 60.512 744.323 59.488 747.48 58.72C750.637 57.8667 753.667 56.928 756.568 55.904C759.555 54.88 762.157 53.5147 764.376 51.808C766.68 50.1013 768.259 47.712 769.112 44.64C769.624 42.2507 770.051 40.1173 770.392 38.24C770.733 36.2773 770.819 34.6133 770.648 33.248C770.563 31.8827 770.093 30.816 769.24 30.048C768.472 29.28 767.192 28.896 765.4 28.896C763.267 28.896 761.432 29.4507 759.896 30.56C758.36 31.584 756.824 32.736 755.288 34.016C753.837 35.296 752.216 36.4907 750.424 37.6C748.632 38.624 746.328 39.136 743.512 39.136C741.379 39.136 739.587 38.624 738.136 37.6C736.771 36.4907 735.619 35.296 734.68 34.016C733.656 32.5653 732.845 30.9013 732.248 29.024C736.771 30.7307 740.696 31.584 744.024 31.584C746.243 31.584 748.248 31.328 750.04 30.816C751.832 30.304 753.539 29.7493 755.16 29.152C756.867 28.5547 758.531 28 760.152 27.488C761.859 26.976 763.736 26.72 765.784 26.72C769.197 26.72 771.715 27.232 773.336 28.256C774.957 29.1947 775.981 30.6027 776.408 32.48C776.92 34.272 776.963 36.448 776.536 39.008C776.195 41.4827 775.725 44.256 775.128 47.328C774.616 50.3147 774.147 53.5573 773.72 57.056C773.293 60.5547 773.251 64.1813 773.592 67.936C774.019 71.6907 774.957 75.5307 776.408 79.456C777.944 83.3813 780.333 87.3067 783.576 91.232H774.744C772.696 88.5013 771.075 85.7707 769.88 83.04C768.685 80.224 767.789 77.4507 767.192 74.72C766.595 77.1093 765.784 79.3707 764.76 81.504C763.821 83.552 762.627 85.3867 761.176 87.008C759.725 88.6293 757.976 89.9093 755.928 90.848C753.88 91.7867 751.491 92.256 748.76 92.256C745.603 92.256 742.787 91.7867 740.312 90.848C737.923 89.824 735.917 88.544 734.296 87.008C732.76 85.3867 731.565 83.5947 730.712 81.632C729.944 79.584 729.56 77.4933 729.56 75.36ZM737.496 75.36C737.496 77.408 737.752 79.328 738.264 81.12C738.776 82.8267 739.544 84.3627 740.568 85.728C741.677 87.008 743.043 88.032 744.664 88.8C746.285 89.568 748.205 89.952 750.424 89.952C754.861 89.952 758.573 87.8613 761.56 83.68C764.547 79.4987 766.125 73.2693 766.296 64.992C766.296 62.5173 766.424 60.0853 766.68 57.696C767.021 55.3067 767.405 52.9173 767.832 50.528C766.381 52.6613 764.589 54.368 762.456 55.648C760.408 56.8427 758.232 57.824 755.928 58.592C753.709 59.36 751.491 60.0853 749.272 60.768C747.053 61.4507 745.048 62.3467 743.256 63.456C741.549 64.5653 740.141 66.0587 739.032 67.936C738.008 69.728 737.496 72.2027 737.496 75.36ZM810.946 91.36C806.679 91.36 802.839 90.5493 799.426 88.928C796.098 87.3067 793.282 85.088 790.978 82.272C788.674 79.3707 786.882 76 785.602 72.16C784.407 68.2347 783.81 64.0107 783.81 59.488C783.81 54.9653 784.45 50.6987 785.73 46.688C787.01 42.6773 788.759 39.2213 790.978 36.32C793.197 33.3333 795.799 30.9867 798.786 29.28C801.773 27.5733 805.015 26.72 808.514 26.72C813.549 26.72 817.602 28.0427 820.674 30.688C823.831 33.3333 826.007 36.704 827.202 40.8V27.616H834.242V101.088C834.242 103.648 834.071 105.995 833.73 108.128C833.474 110.261 832.919 112.053 832.066 113.504C831.298 115.04 830.189 116.192 828.738 116.96C827.287 117.813 825.41 118.24 823.106 118.24C820.375 118.24 818.114 117.941 816.322 117.344C814.53 116.747 812.781 116.107 811.074 115.424C809.453 114.741 807.661 114.101 805.698 113.504C803.735 112.907 801.175 112.608 798.018 112.608C796.653 112.608 795.117 112.651 793.41 112.736C791.789 112.907 789.997 113.163 788.034 113.504C788.631 112.139 789.442 110.944 790.466 109.92C791.319 108.981 792.429 108.128 793.794 107.36C795.245 106.677 797.037 106.336 799.17 106.336C801.986 106.336 804.461 106.848 806.594 107.872C808.813 108.896 810.818 110.005 812.61 111.2C814.487 112.395 816.237 113.504 817.858 114.528C819.565 115.552 821.271 116.064 822.978 116.064C824.343 116.064 825.197 115.68 825.538 114.912C825.965 114.144 826.178 113.163 826.178 111.968V86.112C824.557 87.8187 822.509 89.1413 820.034 90.08C817.559 90.9333 814.53 91.36 810.946 91.36ZM804.546 29.664C802.925 29.92 801.09 30.6453 799.042 31.84C797.079 32.9493 795.373 34.784 793.922 37.344C792.471 39.904 791.447 43.3173 790.85 47.584C790.338 51.7653 790.765 57.056 792.13 63.456C793.325 68.7467 794.69 73.056 796.226 76.384C797.762 79.712 799.383 82.3573 801.09 84.32C802.797 86.1973 804.503 87.4773 806.21 88.16C808.002 88.8427 809.666 89.184 811.202 89.184C811.885 89.184 812.525 89.1413 813.122 89.056C813.719 88.9707 814.274 88.8427 814.786 88.672C816.834 88.16 818.626 87.3067 820.162 86.112C821.783 84.9173 823.063 83.1253 824.002 80.736C825.026 78.2613 825.709 75.0187 826.05 71.008C826.391 66.912 826.306 61.7493 825.794 55.52C825.282 49.0347 824.258 44 822.722 40.416C821.271 36.7467 819.522 34.0587 817.474 32.352C815.426 30.6453 813.25 29.7067 810.946 29.536C808.727 29.28 806.594 29.3227 804.546 29.664ZM848.237 16.096C846.274 16.096 844.61 15.456 843.245 14.176C841.965 12.8107 841.325 11.1467 841.325 9.184C841.325 7.22133 841.965 5.6 843.245 4.31999C844.61 2.95466 846.274 2.272 848.237 2.272C850.2 2.272 851.864 2.95466 853.229 4.31999C854.594 5.6 855.277 7.22133 855.277 9.184C855.277 11.1467 854.594 12.8107 853.229 14.176C851.864 15.456 850.2 16.096 848.237 16.096ZM852.205 27.616V69.216C852.29 71.0933 852.461 72.9707 852.717 74.848C852.973 76.7253 853.442 78.56 854.125 80.352C854.808 82.144 855.746 83.936 856.941 85.728C858.221 87.52 859.842 89.3547 861.805 91.232H852.205C849.048 86.9653 846.914 82.8693 845.805 78.944C844.781 74.9333 844.269 70.752 844.269 66.4V27.616H852.205ZM866.34 27.616H874.276V56.544C875.129 52.5333 876.281 48.736 877.732 45.152C879.183 41.4827 880.889 38.2827 882.852 35.552C884.9 32.8213 887.161 30.688 889.636 29.152C892.196 27.5307 894.969 26.72 897.956 26.72C901.455 26.72 904.015 27.2747 905.636 28.384C907.343 29.4933 908.409 31.0293 908.836 32.992C909.348 34.9547 909.391 37.3013 908.964 40.032C908.537 42.7627 907.983 45.7067 907.3 48.864C906.703 52.0213 906.148 55.392 905.636 58.976C905.124 62.4747 905.039 66.0587 905.38 69.728C905.721 73.3973 906.617 77.0667 908.068 80.736C909.519 84.32 911.865 87.8187 915.108 91.232H906.276C902.692 86.368 900.303 81.5467 899.108 76.768C897.999 71.9893 897.529 67.424 897.7 63.072C897.871 58.6347 898.383 54.5387 899.236 50.784C900.089 46.944 900.729 43.6587 901.156 40.928C901.668 38.112 901.625 35.936 901.028 34.4C900.431 32.7787 898.767 31.968 896.036 31.968C892.879 31.968 890.063 32.992 887.588 35.04C885.199 37.0027 883.108 39.648 881.316 42.976C879.524 46.304 878.031 50.1867 876.836 54.624C875.641 59.0613 874.788 63.712 874.276 68.576V91.232H866.34V27.616ZM943.196 91.36C938.929 91.36 935.089 90.5493 931.676 88.928C928.348 87.3067 925.532 85.088 923.228 82.272C920.924 79.3707 919.132 76 917.852 72.16C916.657 68.2347 916.06 64.0107 916.06 59.488C916.06 54.9653 916.7 50.6987 917.98 46.688C919.26 42.6773 921.009 39.2213 923.228 36.32C925.447 33.3333 928.049 30.9867 931.036 29.28C934.023 27.5733 937.265 26.72 940.764 26.72C945.799 26.72 949.852 28.0427 952.924 30.688C956.081 33.3333 958.257 36.704 959.452 40.8V27.616H966.492V101.088C966.492 103.648 966.321 105.995 965.98 108.128C965.724 110.261 965.169 112.053 964.316 113.504C963.548 115.04 962.439 116.192 960.988 116.96C959.537 117.813 957.66 118.24 955.356 118.24C952.625 118.24 950.364 117.941 948.572 117.344C946.78 116.747 945.031 116.107 943.324 115.424C941.703 114.741 939.911 114.101 937.948 113.504C935.985 112.907 933.425 112.608 930.268 112.608C928.903 112.608 927.367 112.651 925.66 112.736C924.039 112.907 922.247 113.163 920.284 113.504C920.881 112.139 921.692 110.944 922.716 109.92C923.569 108.981 924.679 108.128 926.044 107.36C927.495 106.677 929.287 106.336 931.42 106.336C934.236 106.336 936.711 106.848 938.844 107.872C941.063 108.896 943.068 110.005 944.86 111.2C946.737 112.395 948.487 113.504 950.108 114.528C951.815 115.552 953.521 116.064 955.228 116.064C956.593 116.064 957.447 115.68 957.788 114.912C958.215 114.144 958.428 113.163 958.428 111.968V86.112C956.807 87.8187 954.759 89.1413 952.284 90.08C949.809 90.9333 946.78 91.36 943.196 91.36ZM936.796 29.664C935.175 29.92 933.34 30.6453 931.292 31.84C929.329 32.9493 927.623 34.784 926.172 37.344C924.721 39.904 923.697 43.3173 923.1 47.584C922.588 51.7653 923.015 57.056 924.38 63.456C925.575 68.7467 926.94 73.056 928.476 76.384C930.012 79.712 931.633 82.3573 933.34 84.32C935.047 86.1973 936.753 87.4773 938.46 88.16C940.252 88.8427 941.916 89.184 943.452 89.184C944.135 89.184 944.775 89.1413 945.372 89.056C945.969 88.9707 946.524 88.8427 947.036 88.672C949.084 88.16 950.876 87.3067 952.412 86.112C954.033 84.9173 955.313 83.1253 956.252 80.736C957.276 78.2613 957.959 75.0187 958.3 71.008C958.641 66.912 958.556 61.7493 958.044 55.52C957.532 49.0347 956.508 44 954.972 40.416C953.521 36.7467 951.772 34.0587 949.724 32.352C947.676 30.6453 945.5 29.7067 943.196 29.536C940.977 29.28 938.844 29.3227 936.796 29.664ZM1028.49 92.256C1024.48 90.8053 1021.4 89.0987 1019.27 87.136C1017.22 85.1733 1015.77 83.04 1014.92 80.736C1014.07 78.3467 1013.68 75.8293 1013.77 73.184C1013.85 70.4533 1014.02 67.6373 1014.28 64.736C1014.62 61.8347 1014.88 58.848 1015.05 55.776C1015.22 52.6187 1015 49.4613 1014.41 46.304C1013.81 43.1467 1012.66 40.032 1010.95 36.96C1009.24 33.8027 1006.6 30.688 1003.02 27.616H1011.85C1015.77 30.7733 1018.42 34.2293 1019.78 37.984C1021.15 41.6533 1021.87 45.408 1021.96 49.248C1022.04 53.088 1021.79 56.928 1021.19 60.768C1020.68 64.608 1020.42 68.2773 1020.42 71.776C1020.51 75.1893 1021.15 78.3893 1022.34 81.376C1023.54 84.2773 1025.97 86.752 1029.64 88.8C1030.75 87.8613 1032.2 86.368 1033.99 84.32C1035.87 82.272 1037.75 79.6267 1039.62 76.384C1040.9 74.1653 1042.06 71.8187 1043.08 69.344C1044.1 66.784 1044.91 64.1387 1045.51 61.408C1046.19 58.592 1046.58 55.7333 1046.66 52.832C1046.75 49.8453 1046.41 46.7733 1045.64 43.616C1044.87 40.8853 1043.63 38.1973 1041.93 35.552C1040.22 32.9067 1037.87 30.2613 1034.89 27.616H1043.72C1047.64 30.7733 1050.29 34.2293 1051.66 37.984C1053.02 41.6533 1053.75 45.408 1053.83 49.248C1053.92 53.088 1053.66 56.928 1053.06 60.768C1052.55 64.608 1052.3 68.2773 1052.3 71.776C1052.38 75.1893 1053.02 78.3893 1054.22 81.376C1055.41 84.2773 1057.84 86.752 1061.51 88.8C1062.62 87.8613 1064.07 86.368 1065.86 84.32C1067.74 82.272 1069.62 79.6267 1071.5 76.384C1072.78 74.1653 1073.84 71.392 1074.69 68.064C1075.63 64.736 1076.15 61.024 1076.23 56.928C1076.4 52.7467 1076.1 48.1813 1075.34 43.232C1074.57 38.2827 1073.07 33.0773 1070.86 27.616H1081.1C1081.86 33.76 1082.12 39.392 1081.86 44.512C1081.69 49.632 1081.18 54.24 1080.33 58.336C1079.47 62.432 1078.41 66.1013 1077.13 69.344C1075.85 72.5013 1074.57 75.232 1073.29 77.536C1071.84 80.096 1070.34 82.272 1068.81 84.064C1067.36 85.856 1065.99 87.3493 1064.71 88.544C1063.52 89.7387 1062.49 90.6347 1061.64 91.232C1060.87 91.8293 1060.44 92.1707 1060.36 92.256C1056.78 90.976 1053.96 89.4827 1051.91 87.776C1049.86 86.0693 1048.33 84.2347 1047.3 82.272C1046.36 80.224 1045.81 78.048 1045.64 75.744C1045.55 73.44 1045.6 71.0507 1045.77 68.576C1045.08 70.1973 1044.36 71.776 1043.59 73.312C1042.91 74.7627 1042.18 76.1707 1041.42 77.536C1039.96 80.096 1038.47 82.272 1036.94 84.064C1035.48 85.856 1034.12 87.3493 1032.84 88.544C1031.64 89.7387 1030.62 90.6347 1029.77 91.232C1029 91.8293 1028.57 92.1707 1028.49 92.256ZM1094.61 16.096C1092.65 16.096 1090.99 15.456 1089.62 14.176C1088.34 12.8107 1087.7 11.1467 1087.7 9.184C1087.7 7.22133 1088.34 5.6 1089.62 4.31999C1090.99 2.95466 1092.65 2.272 1094.61 2.272C1096.57 2.272 1098.24 2.95466 1099.6 4.31999C1100.97 5.6 1101.65 7.22133 1101.65 9.184C1101.65 11.1467 1100.97 12.8107 1099.6 14.176C1098.24 15.456 1096.57 16.096 1094.61 16.096ZM1098.58 27.616V69.216C1098.67 71.0933 1098.84 72.9707 1099.09 74.848C1099.35 76.7253 1099.82 78.56 1100.5 80.352C1101.18 82.144 1102.12 83.936 1103.32 85.728C1104.6 87.52 1106.22 89.3547 1108.18 91.232H1098.58C1095.42 86.9653 1093.29 82.8693 1092.18 78.944C1091.16 74.9333 1090.64 70.752 1090.64 66.4V27.616H1098.58ZM1107.16 29.92V27.616C1108.78 27.616 1110.27 27.3173 1111.64 26.72C1113.09 26.1227 1114.32 25.312 1115.35 24.288C1116.46 23.1787 1117.31 21.9413 1117.91 20.576C1118.5 19.1253 1118.8 17.5893 1118.8 15.968V13.28H1122.64V27.616H1141.08V29.92H1122.64V85.856C1122.64 87.136 1122.86 88.16 1123.28 88.928C1123.71 89.6107 1124.56 89.952 1125.84 89.952C1126.87 89.952 1127.72 89.44 1128.4 88.416C1129.17 87.392 1129.98 86.2827 1130.84 85.088C1131.69 83.8933 1132.63 82.784 1133.65 81.76C1134.76 80.736 1136.13 80.224 1137.75 80.224C1139.97 80.224 1141.76 80.608 1143.12 81.376C1144.49 82.0587 1145.64 82.8693 1146.58 83.808C1147.52 84.9173 1148.29 86.1547 1148.88 87.52C1147.94 87.264 1147.05 87.0933 1146.2 87.008C1145.43 86.9227 1144.7 86.88 1144.02 86.88C1142.14 86.88 1140.48 87.1787 1139.03 87.776C1137.66 88.288 1136.3 88.8853 1134.93 89.568C1133.65 90.2507 1132.29 90.8907 1130.84 91.488C1129.47 92 1127.81 92.256 1125.84 92.256C1123.54 92.256 1121.66 91.872 1120.21 91.104C1118.76 90.2507 1117.61 89.0987 1116.76 87.648C1115.99 86.112 1115.43 84.2773 1115.09 82.144C1114.84 80.0107 1114.71 77.6213 1114.71 74.976V29.92H1107.16ZM1153.97 0.607994H1161.9V56.544C1162.75 52.5333 1163.91 48.736 1165.36 45.152C1166.81 41.4827 1168.51 38.2827 1170.48 35.552C1172.53 32.8213 1174.79 30.688 1177.26 29.152C1179.82 27.5307 1182.59 26.72 1185.58 26.72C1189.08 26.72 1191.64 27.2747 1193.26 28.384C1194.97 29.4933 1196.03 31.0293 1196.46 32.992C1196.97 34.9547 1197.02 37.3013 1196.59 40.032C1196.16 42.7627 1195.61 45.7067 1194.93 48.864C1194.33 52.0213 1193.77 55.392 1193.26 58.976C1192.75 62.4747 1192.66 66.0587 1193.01 69.728C1193.35 73.3973 1194.24 77.0667 1195.69 80.736C1197.14 84.32 1199.49 87.8187 1202.73 91.232H1193.9C1190.32 86.368 1187.93 81.5467 1186.73 76.768C1185.62 71.9893 1185.15 67.424 1185.33 63.072C1185.5 58.6347 1186.01 54.5387 1186.86 50.784C1187.71 46.944 1188.35 43.6587 1188.78 40.928C1189.29 38.112 1189.25 35.936 1188.65 34.4C1188.06 32.7787 1186.39 31.968 1183.66 31.968C1180.5 31.968 1177.69 32.992 1175.21 35.04C1172.82 37.0027 1170.73 39.648 1168.94 42.976C1167.15 46.304 1165.66 50.1867 1164.46 54.624C1163.27 59.0613 1162.41 63.712 1161.9 68.576V91.232H1153.97V0.607994ZM1245.49 16.096C1243.52 16.096 1241.86 15.456 1240.5 14.176C1239.22 12.8107 1238.58 11.1467 1238.58 9.184C1238.58 7.22133 1239.22 5.6 1240.5 4.31999C1241.86 2.95466 1243.52 2.272 1245.49 2.272C1247.45 2.272 1249.11 2.95466 1250.48 4.31999C1251.84 5.6 1252.53 7.22133 1252.53 9.184C1252.53 11.1467 1251.84 12.8107 1250.48 14.176C1249.11 15.456 1247.45 16.096 1245.49 16.096ZM1249.46 27.616V69.216C1249.54 71.0933 1249.71 72.9707 1249.97 74.848C1250.22 76.7253 1250.69 78.56 1251.38 80.352C1252.06 82.144 1253 83.936 1254.19 85.728C1255.47 87.52 1257.09 89.3547 1259.06 91.232H1249.46C1246.3 86.9653 1244.16 82.8693 1243.06 78.944C1242.03 74.9333 1241.52 70.752 1241.52 66.4V27.616H1249.46ZM1263.59 27.616H1271.53V55.264C1272.29 51.424 1273.32 47.7973 1274.6 44.384C1275.96 40.8853 1277.54 37.856 1279.33 35.296C1281.21 32.6507 1283.34 30.56 1285.73 29.024C1288.12 27.488 1290.77 26.72 1293.67 26.72C1296.83 26.72 1299.22 27.1893 1300.84 28.128C1302.46 28.9813 1303.57 30.2187 1304.17 31.84C1304.76 33.376 1304.98 35.2533 1304.81 37.472C1304.64 39.6907 1304.29 42.1227 1303.78 44.768C1305.74 39.4773 1308.3 35.168 1311.46 31.84C1314.7 28.4267 1318.54 26.72 1322.98 26.72C1326.57 26.72 1329.17 27.2747 1330.79 28.384C1332.5 29.4933 1333.56 31.0293 1333.99 32.992C1334.42 34.9547 1334.42 37.3013 1333.99 40.032C1333.65 42.7627 1333.14 45.7067 1332.45 48.864C1331.86 52.0213 1331.3 55.392 1330.79 58.976C1330.28 62.4747 1330.19 66.0587 1330.53 69.728C1330.88 73.3973 1331.77 77.0667 1333.22 80.736C1334.67 84.32 1337.02 87.8187 1340.26 91.232H1331.3C1327.72 86.368 1325.37 81.5467 1324.26 76.768C1323.15 71.9893 1322.64 67.424 1322.73 63.072C1322.9 58.6347 1323.41 54.5387 1324.26 50.784C1325.2 46.944 1325.88 43.6587 1326.31 40.928C1326.82 38.112 1326.78 35.936 1326.18 34.4C1325.58 32.7787 1323.92 31.968 1321.19 31.968C1318.03 31.968 1315.22 33.0773 1312.74 35.296C1310.27 37.4293 1308.18 40.1173 1306.47 43.36C1304.76 46.5173 1303.44 49.9307 1302.5 53.6C1301.65 57.2693 1301.14 60.64 1300.97 63.712C1300.8 68.32 1301.35 72.9707 1302.63 77.664C1303.91 82.3573 1306.64 86.88 1310.82 91.232H1301.99C1298.41 86.368 1296.02 81.5467 1294.82 76.768C1293.71 71.9893 1293.24 67.424 1293.41 63.072C1293.58 58.6347 1294.1 54.5387 1294.95 50.784C1295.8 46.944 1296.44 43.6587 1296.87 40.928C1297.38 38.112 1297.34 35.936 1296.74 34.4C1296.14 32.7787 1294.48 31.968 1291.75 31.968C1288.59 31.968 1285.86 32.992 1283.56 35.04C1281.25 37.0027 1279.29 39.648 1277.67 42.976C1276.13 46.304 1274.85 50.1867 1273.83 54.624C1272.81 59.0613 1272.04 63.712 1271.53 68.576V91.232H1263.59V27.616ZM1351.76 27.616V33.504C1353.38 31.2853 1355.47 29.6213 1358.03 28.512C1360.67 27.3173 1364 26.72 1368.01 26.72C1372.28 26.72 1376.08 27.5733 1379.4 29.28C1382.73 30.9867 1385.55 33.3333 1387.85 36.32C1390.24 39.2213 1392.03 42.6773 1393.23 46.688C1394.51 50.6987 1395.15 54.9653 1395.15 59.488C1395.15 64.0107 1394.51 68.2773 1393.23 72.288C1391.95 76.2133 1390.2 79.6693 1387.98 82.656C1385.76 85.6427 1383.16 87.9893 1380.17 89.696C1377.18 91.4027 1373.94 92.256 1370.44 92.256C1366.01 92.256 1362.29 91.1893 1359.31 89.056C1356.32 86.9227 1354.1 84.192 1352.65 80.864V116.704H1344.72V27.616H1351.76ZM1364.04 29.28C1362 29.792 1360.16 30.688 1358.54 31.968C1357 33.248 1355.72 35.2107 1354.7 37.856C1353.76 40.416 1353.12 43.7867 1352.78 47.968C1352.52 52.064 1352.61 57.2267 1353.04 63.456C1353.55 69.9413 1354.53 75.0187 1355.98 78.688C1357.52 82.272 1359.31 84.9173 1361.36 86.624C1363.4 88.3307 1365.58 89.312 1367.88 89.568C1370.19 89.7387 1372.36 89.6533 1374.41 89.312C1376.03 89.056 1377.82 88.3307 1379.79 87.136C1381.84 85.9413 1383.58 84.064 1385.04 81.504C1386.49 78.944 1387.47 75.5733 1387.98 71.392C1388.49 67.2107 1388.06 61.92 1386.7 55.52C1385.33 49.12 1383.67 44.0853 1381.71 40.416C1379.83 36.7467 1377.82 34.016 1375.69 32.224C1373.64 30.432 1371.6 29.408 1369.55 29.152C1367.5 28.8107 1365.66 28.8533 1364.04 29.28ZM1400.31 75.36C1400.31 71.6907 1401.16 68.832 1402.87 66.784C1404.58 64.6507 1406.75 62.9867 1409.4 61.792C1412.13 60.512 1415.07 59.488 1418.23 58.72C1421.39 57.8667 1424.42 56.928 1427.32 55.904C1430.3 54.88 1432.91 53.5147 1435.13 51.808C1437.43 50.1013 1439.01 47.712 1439.86 44.64C1440.37 42.2507 1440.8 40.1173 1441.14 38.24C1441.48 36.2773 1441.57 34.6133 1441.4 33.248C1441.31 31.8827 1440.84 30.816 1439.99 30.048C1439.22 29.28 1437.94 28.896 1436.15 28.896C1434.02 28.896 1432.18 29.4507 1430.65 30.56C1429.11 31.584 1427.57 32.736 1426.04 34.016C1424.59 35.296 1422.97 36.4907 1421.17 37.6C1419.38 38.624 1417.08 39.136 1414.26 39.136C1412.13 39.136 1410.34 38.624 1408.89 37.6C1407.52 36.4907 1406.37 35.296 1405.43 34.016C1404.41 32.5653 1403.6 30.9013 1403 29.024C1407.52 30.7307 1411.45 31.584 1414.77 31.584C1416.99 31.584 1419 31.328 1420.79 30.816C1422.58 30.304 1424.29 29.7493 1425.91 29.152C1427.62 28.5547 1429.28 28 1430.9 27.488C1432.61 26.976 1434.49 26.72 1436.53 26.72C1439.95 26.72 1442.46 27.232 1444.09 28.256C1445.71 29.1947 1446.73 30.6027 1447.16 32.48C1447.67 34.272 1447.71 36.448 1447.29 39.008C1446.94 41.4827 1446.48 44.256 1445.88 47.328C1445.37 50.3147 1444.9 53.5573 1444.47 57.056C1444.04 60.5547 1444 64.1813 1444.34 67.936C1444.77 71.6907 1445.71 75.5307 1447.16 79.456C1448.69 83.3813 1451.08 87.3067 1454.33 91.232H1445.49C1443.45 88.5013 1441.82 85.7707 1440.63 83.04C1439.44 80.224 1438.54 77.4507 1437.94 74.72C1437.34 77.1093 1436.53 79.3707 1435.51 81.504C1434.57 83.552 1433.38 85.3867 1431.93 87.008C1430.48 88.6293 1428.73 89.9093 1426.68 90.848C1424.63 91.7867 1422.24 92.256 1419.51 92.256C1416.35 92.256 1413.54 91.7867 1411.06 90.848C1408.67 89.824 1406.67 88.544 1405.05 87.008C1403.51 85.3867 1402.32 83.5947 1401.46 81.632C1400.69 79.584 1400.31 77.4933 1400.31 75.36ZM1408.25 75.36C1408.25 77.408 1408.5 79.328 1409.01 81.12C1409.53 82.8267 1410.29 84.3627 1411.32 85.728C1412.43 87.008 1413.79 88.032 1415.41 88.8C1417.04 89.568 1418.96 89.952 1421.17 89.952C1425.61 89.952 1429.32 87.8613 1432.31 83.68C1435.3 79.4987 1436.88 73.2693 1437.05 64.992C1437.05 62.5173 1437.17 60.0853 1437.43 57.696C1437.77 55.3067 1438.16 52.9173 1438.58 50.528C1437.13 52.6613 1435.34 54.368 1433.21 55.648C1431.16 56.8427 1428.98 57.824 1426.68 58.592C1424.46 59.36 1422.24 60.0853 1420.02 60.768C1417.8 61.4507 1415.8 62.3467 1414.01 63.456C1412.3 64.5653 1410.89 66.0587 1409.78 67.936C1408.76 69.728 1408.25 72.2027 1408.25 75.36ZM1455.31 59.744C1455.31 48.9067 1457.32 40.7573 1461.33 35.296C1465.34 29.7493 1470.84 26.976 1477.84 26.976C1479.63 26.976 1481.51 27.1893 1483.47 27.616C1485.43 28.0427 1487.4 28.4693 1489.36 28.896C1491.32 29.3227 1493.24 29.7067 1495.12 30.048C1497.08 30.3893 1498.87 30.5173 1500.49 30.432C1498.02 28.64 1496.23 26.464 1495.12 23.904C1494.01 21.2587 1493.75 18.6133 1494.35 15.968C1495.03 12.9813 1496.7 10.6347 1499.34 8.92799C1501.99 7.22133 1505.36 6.368 1509.45 6.368C1512.87 6.368 1515.6 6.19733 1517.65 5.856C1519.69 5.42933 1521.23 4.96 1522.25 4.448C1523.36 3.93599 1524.05 3.46666 1524.3 3.03999C1524.64 2.61333 1524.81 2.39999 1524.81 2.39999H1526.99V27.872H1545.42V30.048H1526.99V86.112C1526.99 87.3067 1527.2 88.288 1527.63 89.056C1528.06 89.824 1528.91 90.208 1530.19 90.208C1531.21 90.208 1532.11 89.696 1532.88 88.672C1533.65 87.648 1534.41 86.5387 1535.18 85.344C1536.04 84.1493 1536.97 83.04 1538 82.016C1539.11 80.992 1540.47 80.48 1542.09 80.48C1544.31 80.48 1546.1 80.864 1547.47 81.632C1548.84 82.3147 1549.99 83.1253 1550.93 84.064C1551.86 85.088 1552.63 86.2827 1553.23 87.648C1551.27 87.2213 1549.69 87.008 1548.49 87.008C1546.62 87.008 1544.95 87.3067 1543.5 87.904C1542.14 88.416 1540.77 89.0133 1539.41 89.696C1538.13 90.3787 1536.76 91.0187 1535.31 91.616C1533.86 92.128 1532.15 92.384 1530.19 92.384C1527.89 92.384 1526.01 92 1524.56 91.232C1523.11 90.3787 1521.96 89.2267 1521.1 87.776C1520.33 86.24 1519.78 84.4053 1519.44 82.272C1519.18 80.1387 1519.05 77.792 1519.05 75.232V30.048H1511.5V27.872C1513.12 27.872 1514.62 27.5733 1515.98 26.976C1517.43 26.3787 1518.67 25.568 1519.69 24.544C1520.8 23.4347 1521.66 22.1973 1522.25 20.832C1522.85 19.3813 1523.15 17.8453 1523.15 16.224V6.24C1522.64 6.83733 1522.08 7.392 1521.49 7.904C1520.97 8.33067 1520.25 8.71467 1519.31 9.056C1518.37 9.39733 1517.09 9.69599 1515.47 9.952C1513.93 10.1227 1511.93 10.208 1509.45 10.208C1506.38 10.208 1503.82 10.8053 1501.77 12C1499.81 13.1093 1498.57 14.7307 1498.06 16.864C1497.64 18.7413 1498.02 20.8747 1499.21 23.264C1500.49 25.568 1502.5 27.4453 1505.23 28.896C1503.52 32.48 1501.86 34.9547 1500.24 36.32C1498.62 37.6 1497.04 38.24 1495.5 38.24C1493.97 38.24 1492.47 37.7707 1491.02 36.832C1489.57 35.8933 1488.12 34.8693 1486.67 33.76C1485.22 32.5653 1483.77 31.4987 1482.32 30.56C1480.87 29.6213 1479.37 29.152 1477.84 29.152C1475.45 29.152 1473.1 29.7493 1470.8 30.944C1468.49 32.1387 1466.57 34.1013 1465.04 36.832C1463.59 39.5627 1462.65 43.1467 1462.22 47.584C1461.8 51.936 1462.26 57.312 1463.63 63.712C1465.34 71.3067 1468.2 76.896 1472.21 80.48C1476.22 84.064 1480.65 85.856 1485.52 85.856C1488.85 85.856 1492.22 85.0453 1495.63 83.424C1499.04 81.8027 1502.24 79.4987 1505.23 76.512C1504.29 78.3893 1503.01 80.2667 1501.39 82.144C1499.77 84.0213 1497.93 85.728 1495.89 87.264C1493.92 88.8 1491.79 90.0373 1489.49 90.976C1487.18 91.9147 1484.84 92.384 1482.45 92.384C1478.18 92.384 1474.34 91.5307 1470.93 89.824C1467.6 88.1173 1464.78 85.8133 1462.48 82.912C1460.17 79.9253 1458.38 76.4693 1457.1 72.544C1455.91 68.5333 1455.31 64.2667 1455.31 59.744ZM1558.34 91.232V17.888C1558.34 12.5973 1559.24 8.416 1561.03 5.34399C1562.82 2.18666 1566.02 0.607994 1570.63 0.607994C1572.93 0.607994 1574.85 0.949328 1576.39 1.632C1578.01 2.22933 1579.5 2.91199 1580.87 3.67999C1582.32 4.36266 1583.73 5.04533 1585.09 5.728C1586.54 6.32533 1588.16 6.62399 1589.96 6.62399C1591.75 6.62399 1593.88 6.19733 1596.36 5.34399C1594.14 7.81866 1592.13 9.52533 1590.34 10.464C1588.63 11.4027 1587.05 11.872 1585.6 11.872C1583.98 11.872 1582.53 11.4027 1581.25 10.464C1579.97 9.52533 1578.73 8.50133 1577.54 7.392C1576.43 6.28266 1575.32 5.25866 1574.21 4.31999C1573.19 3.38133 1572.08 2.91199 1570.88 2.91199C1569.77 2.91199 1568.88 3.16799 1568.2 3.67999C1567.6 4.192 1567.13 4.832 1566.79 5.6C1566.53 6.368 1566.36 7.17867 1566.28 8.032C1566.28 8.88533 1566.28 9.61066 1566.28 10.208V35.168C1567.47 33.12 1569.35 31.2 1571.91 29.408C1574.55 27.616 1577.45 26.72 1580.61 26.72C1582.57 26.72 1584.49 27.1893 1586.37 28.128C1588.33 28.9813 1590.21 30.5173 1592 32.736C1588.42 31.456 1585.01 30.816 1581.76 30.816C1577.75 30.816 1574.34 31.5413 1571.52 32.992C1568.79 34.3573 1567.04 35.8933 1566.28 37.6V91.232H1558.34ZM1612.92 92.256C1609.42 92.256 1606.82 91.7013 1605.11 90.592C1603.49 89.4827 1602.42 87.9467 1601.91 85.984C1601.48 84.0213 1601.48 81.6747 1601.91 78.944C1602.34 76.2133 1602.85 73.2693 1603.45 70.112C1604.13 66.8693 1604.73 63.4987 1605.24 60C1605.75 56.416 1605.83 52.7893 1605.49 49.12C1605.15 45.4507 1604.26 41.824 1602.81 38.24C1601.35 34.5707 1599.01 31.0293 1595.77 27.616H1604.6C1608.35 32.1387 1610.83 36.7467 1612.02 41.44C1613.22 46.1333 1613.73 50.6987 1613.56 55.136C1613.39 59.488 1612.83 63.6267 1611.89 67.552C1611.04 71.392 1610.36 74.7627 1609.85 77.664C1609.33 80.48 1609.33 82.7413 1609.85 84.448C1610.44 86.0693 1612.11 86.88 1614.84 86.88C1617.99 86.88 1620.9 85.8987 1623.54 83.936C1626.27 81.888 1628.58 79.1573 1630.45 75.744C1632.42 72.3307 1633.91 68.32 1634.93 63.712C1636.04 59.104 1636.6 54.24 1636.6 49.12V27.616H1644.53V66.784C1644.53 71.136 1645.17 75.36 1646.45 79.456C1647.82 83.4667 1650.38 87.392 1654.13 91.232H1645.3C1642.14 86.9653 1639.93 82.8693 1638.65 78.944C1637.37 74.9333 1636.73 70.752 1636.73 66.4V64.608C1635.87 68.3627 1634.68 71.9467 1633.14 75.36C1631.69 78.688 1629.94 81.632 1627.89 84.192C1625.93 86.6667 1623.67 88.6293 1621.11 90.08C1618.63 91.5307 1615.9 92.256 1612.92 92.256ZM1658.59 0.607994H1666.53V69.216C1666.61 71.0933 1666.78 72.9707 1667.04 74.848C1667.29 76.7253 1667.76 78.56 1668.45 80.352C1669.13 82.144 1670.07 83.936 1671.26 85.728C1672.54 87.52 1674.16 89.3547 1676.13 91.232H1666.53C1663.37 86.9653 1661.24 82.8693 1660.13 78.944C1659.1 74.9333 1658.59 70.752 1658.59 66.4V0.607994ZM1720.53 0.607994V32.224C1723.77 28.5547 1728.89 26.72 1735.89 26.72C1740.15 26.72 1743.95 27.5733 1747.28 29.28C1750.61 30.9867 1753.42 33.3333 1755.73 36.32C1758.12 39.2213 1759.91 42.6773 1761.1 46.688C1762.38 50.6987 1763.02 54.9653 1763.02 59.488C1763.02 64.0107 1762.38 68.2773 1761.1 72.288C1759.82 76.2133 1758.07 79.6693 1755.85 82.656C1753.64 85.6427 1751.03 87.9893 1748.05 89.696C1745.06 91.4027 1741.82 92.256 1738.32 92.256C1733.28 92.256 1729.19 90.9333 1726.03 88.288C1722.96 85.6427 1720.82 82.272 1719.63 78.176V91.232H1712.59V0.607994H1720.53ZM1731.92 29.28C1729.87 29.792 1728.04 30.688 1726.41 31.968C1724.88 33.248 1723.6 35.2107 1722.57 37.856C1721.64 40.416 1721 43.7867 1720.65 47.968C1720.4 52.064 1720.48 57.2267 1720.91 63.456C1721.42 69.9413 1722.4 75.0187 1723.85 78.688C1725.39 82.272 1727.18 84.9173 1729.23 86.624C1731.28 88.3307 1733.45 89.312 1735.76 89.568C1738.06 89.7387 1740.24 89.6533 1742.29 89.312C1743.91 89.056 1745.7 88.3733 1747.66 87.264C1749.71 86.0693 1751.46 84.192 1752.91 81.632C1754.36 79.072 1755.34 75.7013 1755.85 71.52C1756.37 67.2533 1755.94 61.92 1754.57 55.52C1753.21 49.12 1751.54 44.0853 1749.58 40.416C1747.7 36.7467 1745.7 34.016 1743.57 32.224C1741.52 30.432 1739.47 29.408 1737.42 29.152C1735.37 28.8107 1733.54 28.8533 1731.92 29.28ZM1769.47 91.232V27.616H1776.51V36.96C1777.36 33.9733 1778.72 31.5413 1780.6 29.664C1782.48 27.7013 1784.95 26.72 1788.03 26.72C1789.9 26.72 1791.61 27.0613 1793.15 27.744C1794.68 28.3413 1796.22 29.024 1797.75 29.792C1799.37 30.4747 1801.04 31.0293 1802.75 31.456C1804.45 31.8827 1806.37 31.8827 1808.51 31.456C1807.23 33.5893 1806.03 35.0827 1804.92 35.936C1803.81 36.7893 1802.75 37.216 1801.72 37.216C1800.44 37.216 1799.2 36.7893 1798.01 35.936C1796.9 35.0827 1795.75 34.144 1794.55 33.12C1793.36 32.0107 1792.12 31.0293 1790.84 30.176C1789.65 29.3227 1788.32 28.896 1786.87 28.896C1784.57 28.896 1782.78 29.6213 1781.5 31.072C1780.3 32.5227 1779.36 34.2293 1778.68 36.192C1778.08 38.0693 1777.7 39.9467 1777.53 41.824C1777.44 43.7013 1777.4 45.1093 1777.4 46.048V91.232H1769.47ZM1834.7 92.256C1830.43 92.256 1826.59 91.4027 1823.18 89.696C1819.85 87.9893 1817.03 85.6427 1814.73 82.656C1812.42 79.6693 1810.63 76.2133 1809.35 72.288C1808.16 68.2773 1807.56 64.0107 1807.56 59.488C1807.56 54.112 1808.2 49.4187 1809.48 45.408C1810.76 41.312 1812.51 37.8987 1814.73 35.168C1817.03 32.352 1819.72 30.2613 1822.79 28.896C1825.86 27.4453 1829.15 26.72 1832.65 26.72C1837.17 26.72 1840.97 27.5307 1844.04 29.152C1847.2 30.7733 1849.46 32.864 1850.82 35.424C1852.19 37.984 1852.62 40.8427 1852.1 44C1851.59 47.072 1849.97 50.0587 1847.24 52.96C1844.59 55.8613 1840.75 58.5067 1835.72 60.896C1830.69 63.2853 1824.33 65.0347 1816.65 66.144C1818.44 72.8 1821.26 77.7067 1825.1 80.864C1828.94 84.0213 1833.16 85.6 1837.77 85.6C1841.1 85.6 1844.47 84.832 1847.88 83.296C1851.29 81.6747 1854.49 79.328 1857.48 76.256C1856.54 78.1333 1855.26 80.0533 1853.64 82.016C1852.02 83.8933 1850.18 85.6 1848.14 87.136C1846.17 88.672 1844.04 89.9093 1841.74 90.848C1839.43 91.7867 1837.09 92.256 1834.7 92.256ZM1832.52 28.896C1830.13 28.896 1827.66 29.4933 1825.1 30.688C1822.54 31.8827 1820.36 33.8453 1818.57 36.576C1816.78 39.3067 1815.54 42.8907 1814.86 47.328C1814.17 51.68 1814.51 57.056 1815.88 63.456C1815.97 63.5413 1816.01 63.6693 1816.01 63.84C1821.64 63.328 1826.38 62.0907 1830.22 60.128C1834.06 58.1653 1837.13 55.904 1839.43 53.344C1841.74 50.784 1843.23 48.0533 1843.91 45.152C1844.68 42.2507 1844.77 39.6053 1844.17 37.216C1843.57 34.8267 1842.25 32.864 1840.2 31.328C1838.24 29.7067 1835.68 28.896 1832.52 28.896ZM1881.36 92.256C1877.35 90.8053 1874.28 89.0987 1872.15 87.136C1870.1 85.1733 1868.65 83.04 1867.79 80.736C1866.94 78.3467 1866.56 75.8293 1866.64 73.184C1866.73 70.4533 1866.9 67.6373 1867.15 64.736C1867.5 61.8347 1867.75 58.848 1867.92 55.776C1868.09 52.6187 1867.88 49.4613 1867.28 46.304C1866.68 43.1467 1865.53 40.032 1863.83 36.96C1862.12 33.8027 1859.47 30.688 1855.89 27.616H1864.72C1868.65 30.7733 1871.29 34.2293 1872.66 37.984C1874.02 41.6533 1874.75 45.408 1874.83 49.248C1874.92 53.088 1874.66 56.928 1874.07 60.768C1873.55 64.608 1873.3 68.2773 1873.3 71.776C1873.38 75.1893 1874.02 78.3893 1875.22 81.376C1876.41 84.2773 1878.84 86.752 1882.51 88.8C1883.62 87.8613 1885.07 86.368 1886.87 84.32C1888.74 82.272 1890.62 79.6267 1892.5 76.384C1893.78 74.1653 1894.84 71.4347 1895.7 68.192C1896.64 64.864 1897.19 61.152 1897.36 57.056C1897.53 52.8747 1897.19 48.3093 1896.34 43.36C1895.57 38.4107 1894.08 33.1627 1891.86 27.616H1902.1C1902.87 33.76 1903.12 39.392 1902.87 44.512C1902.7 49.632 1902.18 54.24 1901.33 58.336C1900.48 62.432 1899.41 66.1013 1898.13 69.344C1896.85 72.5013 1895.57 75.232 1894.29 77.536C1892.84 80.096 1891.35 82.272 1889.81 84.064C1888.36 85.856 1886.99 87.3493 1885.71 88.544C1884.52 89.7387 1883.5 90.6347 1882.64 91.232C1881.87 91.8293 1881.45 92.1707 1881.36 92.256ZM1915.61 16.096C1913.65 16.096 1911.99 15.456 1910.62 14.176C1909.34 12.8107 1908.7 11.1467 1908.7 9.184C1908.7 7.22133 1909.34 5.6 1910.62 4.31999C1911.99 2.95466 1913.65 2.272 1915.61 2.272C1917.57 2.272 1919.24 2.95466 1920.6 4.31999C1921.97 5.6 1922.65 7.22133 1922.65 9.184C1922.65 11.1467 1921.97 12.8107 1920.6 14.176C1919.24 15.456 1917.57 16.096 1915.61 16.096ZM1919.58 27.616V69.216C1919.67 71.0933 1919.84 72.9707 1920.09 74.848C1920.35 76.7253 1920.82 78.56 1921.5 80.352C1922.18 82.144 1923.12 83.936 1924.32 85.728C1925.6 87.52 1927.22 89.3547 1929.18 91.232H1919.58C1916.42 86.9653 1914.29 82.8693 1913.18 78.944C1912.16 74.9333 1911.64 70.752 1911.64 66.4V27.616H1919.58ZM1928.16 29.92V27.616C1929.78 27.616 1931.27 27.3173 1932.64 26.72C1934.09 26.1227 1935.32 25.312 1936.35 24.288C1937.46 23.1787 1938.31 21.9413 1938.91 20.576C1939.5 19.1253 1939.8 17.5893 1939.8 15.968V13.28H1943.64V27.616H1962.08V29.92H1943.64V85.856C1943.64 87.136 1943.86 88.16 1944.28 88.928C1944.71 89.6107 1945.56 89.952 1946.84 89.952C1947.87 89.952 1948.72 89.44 1949.4 88.416C1950.17 87.392 1950.98 86.2827 1951.84 85.088C1952.69 83.8933 1953.63 82.784 1954.65 81.76C1955.76 80.736 1957.13 80.224 1958.75 80.224C1960.97 80.224 1962.76 80.608 1964.12 81.376C1965.49 82.0587 1966.64 82.8693 1967.58 83.808C1968.52 84.9173 1969.29 86.1547 1969.88 87.52C1968.94 87.264 1968.05 87.0933 1967.2 87.008C1966.43 86.9227 1965.7 86.88 1965.02 86.88C1963.14 86.88 1961.48 87.1787 1960.03 87.776C1958.66 88.288 1957.3 88.8853 1955.93 89.568C1954.65 90.2507 1953.29 90.8907 1951.84 91.488C1950.47 92 1948.81 92.256 1946.84 92.256C1944.54 92.256 1942.66 91.872 1941.21 91.104C1939.76 90.2507 1938.61 89.0987 1937.76 87.648C1936.99 86.112 1936.43 84.2773 1936.09 82.144C1935.84 80.0107 1935.71 77.6213 1935.71 74.976V29.92H1928.16ZM1992.57 88.544C1988.9 87.0933 1986.13 85.4293 1984.25 83.552C1982.38 81.6747 1981.1 79.6267 1980.41 77.408C1979.73 75.1893 1979.43 72.8427 1979.52 70.368C1979.6 67.8933 1979.77 65.3333 1980.03 62.688C1980.37 59.9573 1980.63 57.184 1980.8 54.368C1980.97 51.4667 1980.75 48.5653 1980.16 45.664C1979.56 42.6773 1978.37 39.6907 1976.57 36.704C1974.87 33.632 1972.26 30.6027 1968.77 27.616H1977.6C1980.5 30.0053 1982.67 32.5227 1984.12 35.168C1985.58 37.728 1986.56 40.3733 1987.07 43.104C1987.67 45.7493 1987.88 48.48 1987.71 51.296C1987.54 54.0267 1987.28 56.7147 1986.94 59.36C1986.69 62.0053 1986.47 64.608 1986.3 67.168C1986.13 69.6427 1986.26 72.032 1986.69 74.336C1987.11 76.5547 1987.97 78.6453 1989.25 80.608C1990.61 82.5707 1992.66 84.32 1995.39 85.856C1996.5 84.9173 1997.95 83.424 1999.74 81.376C2001.62 79.328 2003.5 76.6827 2005.37 73.44C2006.65 71.136 2007.81 68.4907 2008.83 65.504C2009.94 62.5173 2010.58 59.1467 2010.75 55.392C2011.01 51.552 2010.62 47.328 2009.6 42.72C2008.66 38.112 2006.74 33.0773 2003.84 27.616H2014.97C2015.74 33.76 2016 39.2213 2015.74 44C2015.57 48.7787 2015.06 53.088 2014.21 56.928C2013.35 60.6827 2012.29 64.0107 2011.01 66.912C2009.73 69.728 2008.45 72.288 2007.17 74.592C2005.29 77.92 2003.37 80.6507 2001.41 82.784C1999.44 84.832 1997.82 86.4107 1996.54 87.52C1993.73 89.9093 1991.85 92.3413 1990.91 94.816C1989.97 97.376 1989.59 99.8933 1989.76 102.368C1989.93 104.843 1990.44 107.275 1991.29 109.664C1992.23 112.139 1993.13 114.485 1993.98 116.704H1985.53C1984.94 113.803 1984.51 111.2 1984.25 108.896C1984 106.592 1984.04 104.373 1984.38 102.24C1984.81 100.107 1985.62 97.9307 1986.81 95.712C1988.09 93.5787 1990.01 91.1893 1992.57 88.544ZM2027.59 85.088C2027.59 81.9307 2028.36 79.712 2029.9 78.432C2031.43 77.152 2033.27 76.512 2035.4 76.512C2037.62 76.512 2039.5 77.152 2041.03 78.432C2042.65 79.712 2043.46 81.9307 2043.46 85.088C2043.46 88.16 2042.65 90.3787 2041.03 91.744C2039.5 93.1093 2037.62 93.792 2035.4 93.792C2033.27 93.792 2031.43 93.1093 2029.9 91.744C2028.36 90.3787 2027.59 88.16 2027.59 85.088Z" fill="black"/>
</svg>
