<svg width="634" height="434" viewBox="0 0 634 434" fill="none" xmlns="http://www.w3.org/2000/svg">
<path d="M134.028 157.7C134.028 151.385 134.54 145.497 135.564 140.036C136.673 134.489 138.38 129.668 140.684 125.572C143.073 121.476 146.102 118.233 149.772 115.844C153.526 113.455 158.049 112.26 163.34 112.26C164.961 112.26 166.71 112.431 168.588 112.772C170.465 113.113 172.385 113.54 174.348 114.052C176.31 114.479 178.273 114.863 180.236 115.204C182.198 115.545 184.033 115.716 185.74 115.716C186.934 115.716 188.044 115.631 189.068 115.46C190.177 115.204 191.201 114.735 192.14 114.052C190.348 117.807 188.641 120.409 187.02 121.86C185.484 123.225 183.99 123.908 182.54 123.908C181.174 123.908 179.766 123.481 178.316 122.628C176.95 121.775 175.414 120.836 173.708 119.812C172.086 118.788 170.294 117.849 168.332 116.996C166.454 116.143 164.321 115.716 161.932 115.716C158.262 115.716 155.02 116.655 152.204 118.532C149.388 120.324 147.084 123.012 145.292 126.596C143.585 130.095 142.476 134.489 141.964 139.78C141.452 144.985 141.708 151.044 142.732 157.956C143.926 155.567 145.42 153.476 147.212 151.684C149.004 149.807 150.924 148.228 152.972 146.948C155.105 145.668 157.324 144.687 159.628 144.004C161.932 143.321 164.15 142.98 166.284 142.98C169.868 142.98 173.025 143.919 175.756 145.796C178.572 147.588 180.492 150.489 181.516 154.5C179.297 152.281 176.737 150.703 173.836 149.764C171.02 148.825 168.118 148.356 165.132 148.356C162.828 148.356 160.566 148.612 158.348 149.124C156.129 149.636 154.038 150.404 152.076 151.428C150.113 152.367 148.321 153.561 146.7 155.012C145.164 156.377 143.926 157.956 142.988 159.748C143.585 163.332 144.438 167.257 145.548 171.524C146.657 175.705 148.193 179.588 150.156 183.172C152.118 186.756 154.636 189.785 157.708 192.26C160.78 194.649 164.62 195.844 169.228 195.844C171.361 195.844 173.793 195.503 176.524 194.82C179.254 194.052 181.516 192.815 183.308 191.108C185.185 189.401 186.593 187.396 187.532 185.092C188.47 182.788 188.94 180.271 188.94 177.54C188.94 174.809 188.428 172.036 187.404 169.22C189.708 172.719 190.988 176.473 191.244 180.484C191.5 184.409 190.774 188.079 189.068 191.492C187.446 194.82 184.844 197.593 181.26 199.812C177.676 202.031 173.11 203.14 167.564 203.14C162.273 203.14 157.537 201.945 153.356 199.556C149.174 197.167 145.633 193.924 142.732 189.828C139.916 185.732 137.74 180.911 136.204 175.364C134.753 169.817 134.028 163.929 134.028 157.7ZM193.718 200.964C195.254 197.892 196.662 195.759 197.942 194.564C199.307 193.369 200.587 192.772 201.782 192.772C202.976 192.772 204.128 193.199 205.238 194.052C206.432 194.82 207.67 195.716 208.95 196.74C210.315 197.679 211.766 198.575 213.302 199.428C214.838 200.196 216.544 200.58 218.422 200.58C220.47 200.58 222.219 200.281 223.67 199.684C225.206 199.001 226.443 198.148 227.382 197.124C228.32 196.1 229.003 194.948 229.43 193.668C229.856 192.388 230.069 191.065 230.069 189.7C230.069 186.969 229.216 184.495 227.51 182.276C225.803 180.057 223.67 177.967 221.11 176.004C218.55 174.041 215.776 172.121 212.79 170.244C209.803 168.367 207.03 166.447 204.47 164.484C201.91 162.436 199.776 160.217 198.07 157.828C196.363 155.439 195.51 152.751 195.51 149.764C195.51 148.057 195.723 146.479 196.15 145.028C196.662 143.492 197.472 142.169 198.582 141.06C199.776 139.865 201.398 138.969 203.446 138.372C205.494 137.689 208.096 137.348 211.253 137.348C216.459 137.348 220.939 138.927 224.694 142.084C228.534 145.156 231.947 149.039 234.934 153.732C237.92 158.425 240.608 163.503 242.998 168.964C245.472 174.425 247.99 179.503 250.55 184.196C253.11 188.889 255.84 192.815 258.742 195.972C261.728 199.044 265.184 200.58 269.11 200.58C271.158 200.58 272.907 200.281 274.358 199.684C275.894 199.001 277.131 198.148 278.07 197.124C279.008 196.1 279.691 194.948 280.118 193.668C280.544 192.388 280.758 191.065 280.758 189.7C280.758 186.969 279.904 184.495 278.198 182.276C276.491 180.057 274.358 177.967 271.798 176.004C269.238 174.041 266.464 172.121 263.478 170.244C260.491 168.367 257.718 166.447 255.158 164.484C252.598 162.436 250.464 160.217 248.758 157.828C247.051 155.439 246.198 152.751 246.198 149.764C246.198 148.057 246.411 146.479 246.838 145.028C247.35 143.492 248.16 142.169 249.27 141.06C250.464 139.865 252.043 138.969 254.006 138.372C256.054 137.689 258.656 137.348 261.814 137.348C263.52 137.348 265.184 137.519 266.806 137.86C268.427 138.201 270.006 138.628 271.542 139.14C273.078 139.567 274.571 139.951 276.022 140.292C277.558 140.633 279.008 140.804 280.374 140.804C281.312 140.804 282.251 140.719 283.19 140.548C284.128 140.292 285.024 139.865 285.878 139.268C284.342 142.255 282.934 144.345 281.654 145.54C280.459 146.735 279.264 147.332 278.07 147.332C276.96 147.332 275.808 146.948 274.614 146.18C273.504 145.327 272.31 144.431 271.03 143.492C269.835 142.468 268.47 141.572 266.934 140.804C265.483 139.951 263.776 139.524 261.814 139.524C258.827 139.524 256.651 140.292 255.286 141.828C254.006 143.279 253.366 145.071 253.366 147.204C253.366 149.593 254.219 151.812 255.926 153.86C257.718 155.908 259.894 157.913 262.454 159.876C265.099 161.839 267.958 163.801 271.03 165.764C274.102 167.641 276.918 169.689 279.478 171.908C282.123 174.041 284.299 176.388 286.006 178.948C287.798 181.423 288.694 184.239 288.694 187.396C288.694 189.785 288.139 191.961 287.03 193.924C286.006 195.801 284.512 197.423 282.55 198.788C280.672 200.068 278.411 201.049 275.766 201.732C273.12 202.415 270.219 202.756 267.062 202.756C263.136 202.756 259.638 201.22 256.566 198.148C253.579 194.991 250.763 191.065 248.118 186.372C245.558 181.679 243.04 176.601 240.566 171.14C238.091 165.679 235.403 160.601 232.502 155.908C229.686 151.215 226.571 147.332 223.158 144.26C219.744 141.103 215.734 139.524 211.126 139.524C208.139 139.524 205.963 140.292 204.598 141.828C203.318 143.279 202.678 145.071 202.678 147.204C202.678 149.593 203.531 151.812 205.238 153.86C207.03 155.908 209.206 157.913 211.766 159.876C214.411 161.839 217.27 163.801 220.342 165.764C223.414 167.641 226.23 169.689 228.79 171.908C231.435 174.041 233.611 176.388 235.318 178.948C237.11 181.423 238.006 184.239 238.006 187.396C238.006 192.26 236 196.057 231.99 198.788C227.979 201.433 222.774 202.756 216.374 202.756C214.752 202.756 213.174 202.585 211.638 202.244C210.102 201.903 208.608 201.519 207.158 201.092C205.792 200.58 204.427 200.153 203.062 199.812C201.696 199.471 200.374 199.3 199.094 199.3C198.155 199.3 197.259 199.428 196.406 199.684C195.552 199.855 194.656 200.281 193.718 200.964ZM321.009 202.756C316.742 202.756 312.902 201.903 309.489 200.196C306.161 198.489 303.345 196.143 301.041 193.156C298.737 190.169 296.945 186.713 295.665 182.788C294.47 178.777 293.873 174.511 293.873 169.988C293.873 164.612 294.513 159.919 295.793 155.908C297.073 151.812 298.822 148.399 301.041 145.668C303.345 142.852 306.033 140.761 309.105 139.396C312.177 137.945 315.462 137.22 318.961 137.22C323.483 137.22 327.281 138.031 330.353 139.652C333.51 141.273 335.771 143.364 337.137 145.924C338.502 148.484 338.929 151.343 338.417 154.5C337.905 157.572 336.283 160.559 333.553 163.46C330.907 166.361 327.067 169.007 322.033 171.396C316.998 173.785 310.641 175.535 302.961 176.644C304.753 183.3 307.569 188.207 311.409 191.364C315.249 194.521 319.473 196.1 324.081 196.1C327.409 196.1 330.779 195.332 334.193 193.796C337.606 192.175 340.806 189.828 343.793 186.756C342.854 188.633 341.574 190.553 339.953 192.516C338.331 194.393 336.497 196.1 334.449 197.636C332.486 199.172 330.353 200.409 328.049 201.348C325.745 202.287 323.398 202.756 321.009 202.756ZM318.833 139.396C316.443 139.396 313.969 139.993 311.409 141.188C308.849 142.383 306.673 144.345 304.881 147.076C303.089 149.807 301.851 153.391 301.169 157.828C300.486 162.18 300.827 167.556 302.193 173.956C302.278 174.041 302.321 174.169 302.321 174.34C307.953 173.828 312.689 172.591 316.529 170.628C320.369 168.665 323.441 166.404 325.745 163.844C328.049 161.284 329.542 158.553 330.225 155.652C330.993 152.751 331.078 150.105 330.481 147.716C329.883 145.327 328.561 143.364 326.513 141.828C324.55 140.207 321.99 139.396 318.833 139.396ZM349.528 138.116H357.464V167.044C358.317 163.033 359.469 159.236 360.92 155.652C362.37 151.983 364.077 148.783 366.04 146.052C368.088 143.321 370.349 141.188 372.824 139.652C375.384 138.031 378.157 137.22 381.144 137.22C384.642 137.22 387.202 137.775 388.824 138.884C390.53 139.993 391.597 141.529 392.024 143.492C392.536 145.455 392.578 147.801 392.152 150.532C391.725 153.263 391.17 156.207 390.488 159.364C389.89 162.521 389.336 165.892 388.824 169.476C388.312 172.975 388.226 176.559 388.568 180.228C388.909 183.897 389.805 187.567 391.256 191.236C392.706 194.82 395.053 198.319 398.296 201.732H389.464C385.88 196.868 383.49 192.047 382.296 187.268C381.186 182.489 380.717 177.924 380.888 173.572C381.058 169.135 381.57 165.039 382.424 161.284C383.277 157.444 383.917 154.159 384.344 151.428C384.856 148.612 384.813 146.436 384.216 144.9C383.618 143.279 381.954 142.468 379.224 142.468C376.066 142.468 373.25 143.492 370.776 145.54C368.386 147.503 366.296 150.148 364.503 153.476C362.712 156.804 361.218 160.687 360.024 165.124C358.829 169.561 357.976 174.212 357.464 179.076V201.732H349.528V138.116ZM399.248 169.988C399.248 159.236 401.253 151.087 405.264 145.54C409.274 139.993 414.778 137.22 421.776 137.22C423.482 137.22 425.232 137.391 427.024 137.732C428.901 138.073 430.736 138.5 432.528 139.012C434.405 139.439 436.24 139.823 438.032 140.164C439.824 140.505 441.53 140.676 443.152 140.676C444.261 140.676 445.328 140.591 446.352 140.42C447.376 140.164 448.314 139.737 449.168 139.14C447.461 142.724 445.797 145.199 444.176 146.564C442.554 147.929 440.976 148.612 439.44 148.612C437.904 148.612 436.41 148.143 434.96 147.204C433.509 146.18 432.058 145.113 430.608 144.004C429.157 142.809 427.706 141.743 426.256 140.804C424.805 139.865 423.312 139.396 421.776 139.396C419.386 139.396 417.04 139.993 414.736 141.188C412.432 142.383 410.512 144.345 408.976 147.076C407.525 149.807 406.586 153.391 406.16 157.828C405.733 162.18 406.202 167.556 407.568 173.956C409.274 181.551 412.133 187.14 416.144 190.724C420.154 194.308 424.592 196.1 429.456 196.1C432.784 196.1 436.154 195.289 439.568 193.668C442.981 192.047 446.181 189.743 449.168 186.756C448.229 188.633 446.949 190.553 445.328 192.516C443.706 194.393 441.872 196.1 439.824 197.636C437.861 199.172 435.728 200.409 433.424 201.348C431.12 202.287 428.773 202.756 426.384 202.756C422.117 202.756 418.277 201.903 414.864 200.196C411.536 198.489 408.72 196.143 406.416 193.156C404.112 190.169 402.32 186.713 401.04 182.788C399.845 178.777 399.248 174.511 399.248 169.988ZM479.134 202.756C474.867 202.756 471.027 201.903 467.614 200.196C464.286 198.489 461.47 196.143 459.166 193.156C456.862 190.169 455.07 186.713 453.79 182.788C452.595 178.777 451.998 174.511 451.998 169.988C451.998 164.612 452.638 159.919 453.918 155.908C455.198 151.812 456.947 148.399 459.166 145.668C461.47 142.852 464.158 140.761 467.23 139.396C470.302 137.945 473.587 137.22 477.086 137.22C481.608 137.22 485.406 138.031 488.478 139.652C491.635 141.273 493.896 143.364 495.262 145.924C496.627 148.484 497.054 151.343 496.542 154.5C496.03 157.572 494.408 160.559 491.678 163.46C489.032 166.361 485.192 169.007 480.158 171.396C475.123 173.785 468.766 175.535 461.086 176.644C462.878 183.3 465.694 188.207 469.534 191.364C473.374 194.521 477.598 196.1 482.206 196.1C485.534 196.1 488.904 195.332 492.318 193.796C495.731 192.175 498.931 189.828 501.918 186.756C500.979 188.633 499.699 190.553 498.078 192.516C496.456 194.393 494.622 196.1 492.574 197.636C490.611 199.172 488.478 200.409 486.174 201.348C483.87 202.287 481.523 202.756 479.134 202.756ZM476.958 139.396C474.568 139.396 472.094 139.993 469.534 141.188C466.974 142.383 464.798 144.345 463.006 147.076C461.214 149.807 459.976 153.391 459.294 157.828C458.611 162.18 458.952 167.556 460.318 173.956C460.403 174.041 460.446 174.169 460.446 174.34C466.078 173.828 470.814 172.591 474.654 170.628C478.494 168.665 481.566 166.404 483.87 163.844C486.174 161.284 487.667 158.553 488.35 155.652C489.118 152.751 489.203 150.105 488.606 147.716C488.008 145.327 486.686 143.364 484.638 141.828C482.675 140.207 480.115 139.396 476.958 139.396Z" fill="black"/>
<path d="M69.893 264.028H79.877V295.644C81.157 287.132 84.933 277.916 92.165 277.916C100.677 277.916 104.517 287.324 104.517 296.22C104.517 305.18 100.933 313.82 93.317 313.82C84.165 313.82 80.965 306.524 79.941 304.54L79.877 304.412V313.5H74.053V266.652C74.053 265.052 71.493 264.86 69.893 264.668V264.028ZM79.877 303.132C82.181 307.164 84.805 310.94 90.501 310.94C95.813 310.94 98.501 304.796 98.501 296.22C98.501 287.644 96.261 281.244 89.989 281.244C84.293 281.244 79.877 293.916 79.877 301.788V303.132ZM107.762 278.94V278.3H117.746V296.796C117.746 304.924 117.938 310.62 122.674 310.62C129.202 310.62 134.962 297.628 135.346 292.188V278.3H141.17L141.234 308.764C141.234 311.132 142.898 312.476 146.226 309.02L146.866 309.468C145.01 311.516 141.746 313.884 138.93 313.884C136.69 313.884 135.602 312.54 135.474 310.364C135.41 309.66 135.346 308.892 135.346 308.124V296.092C133.746 302.556 127.858 313.948 120.434 313.948C112.37 313.948 111.922 306.908 111.922 296.796V280.924C111.922 279.324 108.978 279.004 107.762 278.94ZM156.209 272.348C154.097 272.348 152.369 270.684 152.369 268.508C152.369 266.396 154.097 264.668 156.209 264.668C158.321 264.668 160.049 266.396 160.049 268.508C160.049 270.684 158.321 272.348 156.209 272.348ZM149.233 278.3H159.217V310.876C159.217 312.54 162.033 312.668 163.377 312.86V313.5H149.233V312.86C150.833 312.668 153.393 312.54 153.393 310.876V280.924C153.393 279.324 150.833 279.132 149.233 278.94V278.3ZM181.244 313.5H167.1V312.86C168.7 312.668 171.26 312.412 171.26 310.812V266.652C171.26 265.116 168.7 264.86 167.1 264.668V264.028H177.084V310.812C177.084 312.412 179.516 312.668 181.244 312.86V313.5ZM184.407 279.196L191.383 272.668L195.159 269.596V278.3H207.447V279.132H195.159V304.924C195.159 307.612 195.671 310.812 199.127 310.812C202.199 310.812 204.887 308.764 207.127 305.948L207.703 306.332C207.255 307.1 202.263 313.82 196.375 313.82C190.551 313.82 189.207 309.596 189.207 305.948V279.196H184.407ZM229.782 279.196L236.758 272.668L240.534 269.596V278.3H252.822V279.132H240.534V304.924C240.534 307.612 241.046 310.812 244.502 310.812C247.574 310.812 250.262 308.764 252.502 305.948L253.078 306.332C252.63 307.1 247.638 313.82 241.75 313.82C235.926 313.82 234.582 309.596 234.582 305.948V279.196H229.782ZM273.382 313.884C263.845 313.884 256.102 306.268 256.102 296.476C256.102 286.364 264.23 277.532 274.534 277.532C284.39 277.532 291.942 284.956 291.942 294.748C291.942 305.052 283.942 313.884 273.382 313.884ZM262.246 294.876C262.246 302.428 265.766 312.988 274.918 312.988C283.494 312.988 285.734 303.068 285.862 296.476C286.054 288.86 282.406 278.428 273.19 278.428C264.614 278.428 262.246 289.18 262.246 294.876ZM331.24 313.884C321.896 313.884 314.792 304.156 314.792 295.388C314.792 287.516 319.848 280.028 327.656 278.044C328.936 277.724 330.344 277.532 331.752 277.532C336.424 277.532 341.288 279.516 343.336 283.804C343.784 284.764 344.296 286.172 344.104 287.452C343.848 290.14 340.776 291.42 339.816 291.292C338.664 291.1 339.24 289.564 338.6 286.428C337.576 282.012 334.12 278.428 329.96 278.428C321.896 278.428 320.616 288.732 320.744 294.428C320.936 303.004 324.392 310.044 331.816 311.068C339.176 312.092 344.872 307.1 347.88 300.892L348.584 301.212C345.832 307.996 339.304 313.884 331.24 313.884ZM367.944 313.884C358.408 313.884 350.664 306.268 350.664 296.476C350.664 286.364 358.792 277.532 369.096 277.532C378.952 277.532 386.504 284.956 386.504 294.748C386.504 305.052 378.504 313.884 367.944 313.884ZM356.808 294.876C356.808 302.428 360.328 312.988 369.48 312.988C378.056 312.988 380.296 303.068 380.424 296.476C380.616 288.86 376.968 278.428 367.752 278.428C359.176 278.428 356.808 289.18 356.808 294.876ZM389.276 278.94V278.3H399.26V296.028C400.604 289.116 407.452 277.852 413.98 277.852C423.004 277.852 422.748 285.66 422.748 295.004V310.876C422.748 312.476 425.564 312.732 426.908 312.86V313.5H412.764V312.86C414.364 312.732 416.924 312.476 416.924 310.876V294.94C416.924 286.748 416.284 281.18 412.06 281.18C405.532 281.18 399.516 294.876 399.26 299.868V310.876C399.26 312.476 402.076 312.732 403.42 312.86V313.5H389.276V312.86C390.876 312.732 393.436 312.476 393.436 310.876V280.86C393.436 279.26 390.876 279.132 389.276 278.94ZM428.963 278.94V278.3H438.947V296.028C440.291 289.116 447.139 277.852 453.667 277.852C462.691 277.852 462.435 285.66 462.435 295.004V310.876C462.435 312.476 465.251 312.732 466.595 312.86V313.5H452.451V312.86C454.051 312.732 456.611 312.476 456.611 310.876V294.94C456.611 286.748 455.971 281.18 451.747 281.18C445.219 281.18 439.203 294.876 438.947 299.868V310.876C438.947 312.476 441.763 312.732 443.107 312.86V313.5H428.963V312.86C430.563 312.732 433.123 312.476 433.123 310.876V280.86C433.123 279.26 430.563 279.132 428.963 278.94ZM469.355 295.388C469.355 286.044 476.651 277.532 486.443 277.532C491.691 277.532 498.859 280.924 498.859 287.004C498.859 289.244 497.323 291.612 491.435 291.612L488.875 291.548C479.403 291.548 477.355 298.652 477.099 303.324C477.099 303.324 480.555 310.492 487.211 311.196C494.571 311.964 499.691 306.908 502.635 300.828L503.339 301.084C500.523 307.868 494.763 313.884 486.123 313.884C476.715 313.884 469.355 304.156 469.355 295.388ZM484.907 278.364C477.163 278.364 475.307 287.58 475.307 293.532C475.307 296.54 475.755 299.036 476.523 301.66C477.099 296.604 480.043 290.268 489.771 290.268C491.307 290.268 493.483 290.268 493.483 288.412C493.483 283.548 490.283 278.364 484.907 278.364ZM521.99 313.884C512.646 313.884 505.542 304.156 505.542 295.388C505.542 287.516 510.598 280.028 518.406 278.044C519.686 277.724 521.094 277.532 522.502 277.532C527.174 277.532 532.038 279.516 534.086 283.804C534.534 284.764 535.046 286.172 534.854 287.452C534.598 290.14 531.526 291.42 530.566 291.292C529.414 291.1 529.99 289.564 529.35 286.428C528.326 282.012 524.87 278.428 520.71 278.428C512.646 278.428 511.366 288.732 511.494 294.428C511.686 303.004 515.142 310.044 522.566 311.068C529.926 312.092 535.622 307.1 538.63 300.892L539.334 301.212C536.582 307.996 530.054 313.884 521.99 313.884ZM540.219 279.196L547.195 272.668L550.971 269.596V278.3H563.259V279.132H550.971V304.924C550.971 307.612 551.483 310.812 554.939 310.812C558.011 310.812 560.699 308.764 562.939 305.948L563.515 306.332C563.067 307.1 558.075 313.82 552.187 313.82C546.363 313.82 545.019 309.596 545.019 305.948V279.196H540.219Z" fill="black"/>
</svg>
