<svg xmlns="http://www.w3.org/2000/svg"  viewBox="0 0 64 64" width="48px" height="48px"><path d="M 32 10 C 19.869 10 10 19.869 10 32 C 10 44.131 19.869 54 32 54 C 44.131 54 54 44.131 54 32 C 54 19.869 44.131 10 32 10 z M 32 14 C 41.925 14 50 22.075 50 32 C 50 41.925 41.925 50 32 50 C 22.075 50 14 41.925 14 32 C 14 22.075 22.075 14 32 14 z M 32.199219 21 C 28.080219 21 25.434516 23.853703 25.103516 28.720703 L 24.261719 28.720703 C 23.464719 28.720703 22.998047 29.138562 22.998047 29.851562 C 22.998047 30.564563 23.479719 30.984375 24.261719 30.984375 L 25.029297 30.984375 L 25.029297 33.185547 L 24.261719 33.185547 C 23.464719 33.185547 22.998047 33.589734 22.998047 34.302734 C 22.998047 35.015734 23.479719 35.433594 24.261719 35.433594 L 25.103516 35.433594 C 25.464516 40.456594 28.035516 43 32.228516 43 C 35.880516 43 39.112328 40.519219 39.111328 37.449219 C 39.111328 36.426219 38.601219 35.744141 37.699219 35.744141 C 36.978219 35.744141 36.572234 36.178 36.240234 37 C 35.639234 38.845 34.362906 39.884766 32.378906 39.884766 C 29.988906 39.884766 28.74125 38.394594 28.53125 35.433594 L 32.544922 35.433594 C 33.310922 35.433594 33.792969 35.015734 33.792969 34.302734 C 33.792969 33.589734 33.326922 33.185547 32.544922 33.185547 L 28.410156 33.185547 L 28.410156 30.984375 L 32.544922 30.984375 C 33.310922 30.984375 33.792969 30.564563 33.792969 29.851562 C 33.792969 29.138562 33.326922 28.720703 32.544922 28.720703 L 28.546875 28.720703 C 28.742875 25.712703 30.034688 24.115234 32.304688 24.115234 C 34.122688 24.115234 35.339172 25.170047 36.076172 27.123047 C 36.437172 27.914047 36.874781 28.347656 37.550781 28.347656 C 38.392781 28.347656 39.007812 27.696828 39.007812 26.673828 C 39.007812 23.759828 35.716219 21 32.199219 21 z"/></svg>