<svg width="372" height="252" viewBox="0 0 372 252" fill="none" xmlns="http://www.w3.org/2000/svg">
<path d="M70.8685 174.584L61.2685 70.648H70.2285L75.2205 124.024L80.0845 70.648H87.8925L92.8845 124.024L97.7485 70.648H106.709L97.1085 174.584H88.5325L84.0525 126.328L79.4445 174.584H70.8685ZM115.308 174.584V70.648H137.58V79.608H124.268V115.96H136.428V124.92H124.268V165.752H137.964V174.584H115.308ZM169.021 174.584H159.933V70.648H174.013C182.205 70.648 186.941 75.896 186.941 83.96V111.608C186.941 115.064 186.045 117.624 184.253 120.44C184.637 120.824 184.893 121.208 185.149 121.72C186.429 123.768 187.069 126.328 187.069 129.4V174.584H177.981V128.888C177.981 125.816 177.085 124.92 174.013 124.92H169.021V174.584ZM173.885 79.608H169.021V115.96H174.013C177.341 115.96 177.853 114.68 177.853 111.864V83.704C177.853 80.504 176.957 79.608 173.885 79.608ZM196.558 83.704C196.558 79.48 197.71 76.024 200.014 73.72C202.318 71.16 205.518 70.008 209.486 70.008H210.638C218.958 70.008 223.566 75.64 223.566 83.704V161.272C223.566 170.104 218.958 175.224 210.766 175.224H209.486C200.91 175.224 196.558 169.464 196.558 161.272V83.704ZM205.518 161.528C205.518 165.496 206.926 166.264 209.614 166.264H210.638C212.814 166.264 214.606 165.88 214.606 161.528V83.576C214.606 79.608 213.198 78.968 210.51 78.968H209.614C206.926 78.968 205.518 79.608 205.518 83.576V161.528ZM233.808 161.4V83.704C233.808 75.512 238.288 70.008 246.736 70.008H247.888C256.208 70.008 260.944 75.512 260.944 83.704V108.152H251.856V83.576C251.856 79.608 250.448 78.968 247.76 78.968H246.864C244.176 78.968 242.896 79.608 242.896 83.576V161.656C242.896 165.624 244.176 166.392 246.864 166.392H247.888C250.192 166.392 251.856 166.008 251.856 161.656V129.528H260.944V161.4C260.944 170.232 256.208 175.224 248.016 175.224H246.736C238.16 175.224 233.808 169.592 233.808 161.4ZM279.521 174.584H270.433V70.648H279.521V97.912L288.865 70.648H298.208L280.545 121.976L298.977 174.584H289.761L279.521 145.656V174.584ZM168.828 191.36C168.828 189.8 169.788 188.912 171.42 188.912C171.684 188.912 171.948 188.936 172.188 188.984V184.016C172.188 183.224 171.876 183.152 171.492 183.152H171.324C170.796 183.152 170.628 183.512 170.628 184.016V187.856H168.948V184.04C168.948 182.576 169.788 181.52 171.3 181.52H171.516C173.052 181.52 173.844 182.576 173.844 184.04V197.672H172.188V197.576C171.828 197.72 171.42 197.792 170.988 197.792C169.62 197.792 168.828 196.952 168.828 195.488V191.36ZM170.508 191.336V195.488C170.508 195.752 170.556 195.944 170.628 196.016C170.7 196.112 170.892 196.136 171.036 196.136C171.42 196.136 171.9 195.896 172.188 195.608V190.736C171.948 190.616 171.708 190.544 171.444 190.544C170.652 190.544 170.508 190.832 170.508 191.336ZM176.009 183.344H175.145V181.688H176.009V179.264H177.689V181.688H179.393V183.344H177.689V196.136C177.713 196.136 177.785 196.16 177.881 196.16C178.145 196.16 178.673 196.112 179.369 195.104V197.144C178.865 197.624 178.409 197.792 177.833 197.792C176.705 197.792 176.009 197.096 176.009 195.944V183.344ZM183.415 183.344H182.551V181.688H183.415V179.264H185.095V181.688H186.799V183.344H185.095V196.136C185.119 196.136 185.191 196.16 185.287 196.16C185.551 196.16 186.079 196.112 186.775 195.104V197.144C186.271 197.624 185.815 197.792 185.239 197.792C184.111 197.792 183.415 197.096 183.415 195.944V183.344ZM187.977 197.672V178.52H189.633V181.712C190.017 181.568 190.401 181.496 190.809 181.496C192.201 181.496 192.969 182.336 192.969 183.824V197.672H191.313V183.8C191.313 183.536 191.265 183.344 191.193 183.248C191.097 183.152 190.905 183.128 190.761 183.128C190.329 183.128 189.969 183.344 189.633 183.584V197.672H187.977ZM194.8 197.672V181.688H196.456V197.672H194.8ZM194.728 181.256V179.048H196.552V181.256H194.728ZM198.146 195.224L198.122 190.376H199.802V195.272C199.802 196.088 200.114 196.16 200.522 196.16H200.714C201.218 196.16 201.458 196.016 201.458 195.272V192.368C201.458 191.384 201.434 190.88 200.786 190.112V190.088L199.106 187.976C198.77 187.568 198.53 187.184 198.41 186.8C198.266 186.44 198.218 185.96 198.218 185.336V184.064C198.218 182.624 198.962 181.52 200.498 181.52H200.714C202.274 181.52 203.042 182.6 203.042 184.064V186.944H201.386V184.04C201.386 183.224 201.074 183.176 200.69 183.176H200.522C200.162 183.176 199.874 183.224 199.874 184.016V185.312C199.874 185.888 199.946 186.152 199.97 186.248C200.042 186.392 200.162 186.608 200.45 186.968V186.992L202.13 189.104C202.97 190.136 203.114 190.976 203.114 192.272V195.224C203.114 196.712 202.298 197.792 200.738 197.792H200.498C199.778 197.792 199.202 197.552 198.77 197.12C198.362 196.664 198.146 196.04 198.146 195.224Z" fill="black"/>
<path d="M30.011 204.224C28.859 202.688 28.219 200.768 28.347 198.592C28.475 196.288 29.499 193.856 31.163 191.68C38.203 181.184 63.419 165.824 74.299 160.32C75.579 159.68 76.091 161.472 74.683 162.112C63.035 168.256 30.523 187.072 30.523 198.336C30.523 202.688 33.851 205.248 37.563 206.4C42.043 207.808 47.291 208.064 52.411 207.936C57.915 207.808 63.419 207.04 69.051 205.888C99.899 199.872 134.459 186.432 160.315 169.024C168.123 163.904 187.707 149.952 187.707 140.48C187.707 138.56 186.683 137.28 185.275 136.384C182.075 134.464 177.211 134.592 172.987 134.72C162.235 134.848 151.099 136.384 139.835 138.688C128.443 141.12 116.923 144.192 105.403 147.264C104.251 147.648 104.123 145.856 105.275 145.344C132.539 133.44 159.547 121.408 185.403 106.688C189.115 104.512 192.955 102.336 196.539 99.904C199.867 97.6 203.451 94.912 205.755 91.712C206.779 90.304 207.547 88.64 207.291 87.232C207.035 85.952 205.883 85.184 204.731 84.8C201.531 83.648 197.563 83.776 193.851 84.032C186.555 84.544 178.747 86.72 171.323 89.408C144.699 99.008 118.715 118.848 102.459 141.888C101.691 142.912 100.027 142.784 100.539 141.632C104.635 131.776 110.523 122.304 116.411 112.96C117.307 111.68 119.099 112.192 118.203 113.472C113.851 120.384 109.499 127.296 105.915 134.464C123.579 112.448 150.075 93.632 177.211 85.568C185.403 83.008 194.107 81.216 201.659 81.984C204.731 82.368 208.315 82.88 209.339 85.824C210.235 88.896 207.547 92.736 204.859 95.424C199.227 101.056 189.371 106.56 182.331 110.4C160.955 122.048 139.067 132.288 116.923 142.272C135.995 137.152 155.707 132.672 175.547 132.672C180.667 132.672 189.499 132.8 189.883 139.712C190.011 144.192 186.299 149.312 182.587 153.152C168.891 168.256 142.779 182.464 123.963 190.528C103.739 199.232 71.099 209.984 49.595 209.984C43.707 209.984 33.595 209.216 30.011 204.224ZM191.237 152.128C190.469 150.464 192.261 147.648 193.541 145.984C194.565 144.832 195.973 145.856 195.077 147.008C194.437 147.776 192.901 149.568 193.157 150.72C193.157 150.976 193.413 151.104 193.797 151.104C195.205 151.104 198.789 148.928 201.861 145.344C202.629 144.32 203.397 143.296 204.037 142.272C204.293 141.76 205.061 141.504 205.573 141.632C206.085 141.76 206.085 142.272 205.701 142.912C205.445 143.424 202.373 148.416 203.525 149.184C203.781 149.44 204.549 149.184 204.933 149.056C207.237 148.288 209.285 146.88 211.333 145.6C212.613 145.856 212.485 146.88 211.717 147.392C210.181 148.416 204.677 152 202.117 150.976C201.221 150.464 201.093 149.44 201.221 148.416C200.069 149.824 195.589 153.28 193.029 153.28C192.261 153.28 191.621 152.896 191.237 152.128ZM203.748 159.424C202.724 155.456 208.1 153.152 211.044 151.616C211.812 151.232 212.452 150.848 213.22 150.464C213.092 149.824 212.452 149.056 212.196 148.288C211.556 146.496 212.836 144.576 214.884 143.68C215.78 143.296 216.804 143.168 217.572 143.936C218.212 144.576 218.084 145.472 217.316 146.24C216.548 147.008 215.652 146.368 215.78 145.6C215.78 145.6 215.78 145.472 215.652 145.472C215.268 145.472 214.5 145.856 214.244 146.368C213.732 147.136 214.628 148.16 214.884 148.672C215.012 148.928 215.14 149.184 215.268 149.568C218.468 148.032 221.668 146.752 225.124 145.6C225.124 145.6 227.044 146.624 225.38 147.264C225.38 147.264 219.236 149.568 215.78 151.36C216.036 152.256 216.164 153.152 216.164 154.048C216.164 157.888 214.116 160.704 210.404 161.728C207.844 162.368 204.388 161.856 203.748 159.424ZM205.796 157.504C205.156 159.168 206.436 160.064 208.1 160.064C209.892 160.064 212.196 159.168 213.348 157.504C214.116 156.48 214.5 153.536 213.86 152.256L209.764 154.304C208.484 155.072 206.308 155.968 205.796 157.504ZM223.032 152.512C222.648 150.848 225.208 146.88 226.36 145.6C227.256 144.32 228.792 145.216 227.896 146.496C227.128 147.52 224.568 150.848 225.08 151.488C225.592 152.128 234.808 146.624 236.344 145.6C238.392 145.856 236.344 147.392 235.192 148.16C233.272 149.44 227.128 153.408 224.568 153.408C223.928 153.408 223.288 153.152 223.032 152.512ZM230.84 137.92C231.096 137.408 231.608 137.024 232.248 137.024C232.76 137.024 233.016 137.536 232.888 138.048C232.632 138.56 231.992 139.072 231.48 139.072C230.84 139.072 230.712 138.56 230.84 137.92ZM235.848 151.616C233.672 151.104 236.104 147.648 237.128 146.112C238.024 144.96 239.816 145.472 238.92 146.752C238.408 147.52 238.024 148.288 237.256 149.568C240.072 148.288 244.552 142.272 247.88 142.144C249.032 142.144 248.904 143.424 248.392 144.448C246.216 148.928 243.656 153.536 240.84 157.888C240.072 159.168 238.152 158.656 239.048 157.376C240.712 154.816 242.12 152.256 243.528 149.696C244.168 148.544 246.344 144.832 246.088 144.832C245.96 144.832 243.016 147.52 241.992 148.416C240.456 149.696 237.768 152.128 235.848 151.616ZM249.845 153.792C247.669 151.616 250.997 147.392 252.789 145.856C254.069 144.576 255.861 143.424 257.397 142.784C259.317 142.272 260.085 143.552 259.317 145.216C258.293 147.648 254.197 149.696 251.637 150.464C251.509 150.848 251.125 152 251.765 152.256C253.429 152.768 256.501 151.104 258.165 150.336C261.237 148.8 266.101 145.6 266.101 145.6C266.997 145.728 267.253 146.496 265.973 147.392C263.285 149.44 255.349 154.432 251.637 154.432C250.997 154.432 250.357 154.304 249.845 153.792ZM253.301 147.776C253.685 147.904 257.653 145.088 257.397 144.832C257.141 144.576 254.581 146.496 253.301 147.776ZM258.493 159.424C257.469 155.456 262.845 153.152 265.789 151.616C266.557 151.232 267.197 150.848 267.965 150.464C267.837 149.824 267.197 149.056 266.941 148.288C266.301 146.496 267.581 144.576 269.629 143.68C270.525 143.296 271.549 143.168 272.317 143.936C272.957 144.576 272.829 145.472 272.061 146.24C271.293 147.008 270.397 146.368 270.525 145.6C270.525 145.6 270.525 145.472 270.397 145.472C270.013 145.472 269.245 145.856 268.989 146.368C268.477 147.136 269.373 148.16 269.629 148.672C269.757 148.928 269.885 149.184 270.013 149.568C273.213 148.032 276.413 146.752 279.869 145.6C279.869 145.6 281.789 146.624 280.125 147.264C280.125 147.264 273.981 149.568 270.525 151.36C270.781 152.256 270.909 153.152 270.909 154.048C270.909 157.888 268.861 160.704 265.149 161.728C262.589 162.368 259.133 161.856 258.493 159.424ZM260.541 157.504C259.901 159.168 261.181 160.064 262.845 160.064C264.637 160.064 266.941 159.168 268.093 157.504C268.861 156.48 269.245 153.536 268.605 152.256L264.509 154.304C263.229 155.072 261.053 155.968 260.541 157.504ZM272.273 159.424C271.249 155.456 276.625 153.152 279.569 151.616C280.337 151.232 280.977 150.848 281.745 150.464C281.617 149.824 280.977 149.056 280.721 148.288C280.081 146.496 281.361 144.576 283.409 143.68C284.305 143.296 285.329 143.168 286.097 143.936C286.737 144.576 286.609 145.472 285.841 146.24C285.073 147.008 284.177 146.368 284.305 145.6C284.305 145.6 284.305 145.472 284.177 145.472C283.793 145.472 283.025 145.856 282.769 146.368C282.257 147.136 283.153 148.16 283.409 148.672C283.537 148.928 283.665 149.184 283.793 149.568C286.993 148.032 290.193 146.752 293.649 145.6C293.649 145.6 295.569 146.624 293.905 147.264C293.905 147.264 287.761 149.568 284.305 151.36C284.561 152.256 284.689 153.152 284.689 154.048C284.689 157.888 282.641 160.704 278.929 161.728C276.369 162.368 272.913 161.856 272.273 159.424ZM274.321 157.504C273.681 159.168 274.961 160.064 276.625 160.064C278.417 160.064 280.721 159.168 281.873 157.504C282.641 156.48 283.025 153.536 282.385 152.256L278.289 154.304C277.009 155.072 274.833 155.968 274.321 157.504Z" fill="#46C480"/>
</svg>
