<svg width="35" height="49" viewBox="0 0 35 49" fill="none" xmlns="http://www.w3.org/2000/svg">
<path d="M1.88 3.79484L34.36 0.794844V3.63484L17.68 5.15484L34.36 6.71484V9.51484L1.88 6.51484V3.79484ZM34.36 12.2133V15.0133L1.88 15.0133V12.2133L34.36 12.2133ZM1.88 20.7089L34.36 17.7089V20.5489L17.68 22.0689L34.36 23.6289V26.4289L1.88 23.4289V20.7089ZM34.36 29.1273V31.9273L1.88 31.9273V29.1273L34.36 29.1273ZM1.88 39.583V35.143L34.36 35.143V39.583C34.36 42.143 32.72 43.623 30.2 43.623L6.04 43.623C3.52 43.623 1.88 42.143 1.88 39.583ZM31.56 37.983L4.64 37.983V39.543C4.64 40.503 4.96 40.783 5.96 40.783L30.28 40.783C31.28 40.783 31.56 40.503 31.56 39.543V37.983ZM4.52 45.7427V48.7827H0.88V45.7427H4.52Z" fill="#F4F4F4"/>
</svg>
