<svg width="368" height="92" viewBox="0 0 368 92" fill="none" xmlns="http://www.w3.org/2000/svg">
<path d="M0.0275002 45.7C0.0275002 39.3853 0.5395 33.4973 1.5635 28.036C2.67283 22.4893 4.3795 17.668 6.6835 13.572C9.07283 9.476 12.1022 6.23333 15.7715 3.84399C19.5262 1.45466 24.0488 0.259995 29.3395 0.259995C30.9608 0.259995 32.7102 0.430662 34.5875 0.771996C36.4648 1.11333 38.3848 1.54 40.3475 2.05199C42.3102 2.47866 44.2728 2.86266 46.2355 3.20399C48.1982 3.54533 50.0328 3.716 51.7395 3.716C52.9342 3.716 54.0435 3.63066 55.0675 3.46C56.1768 3.204 57.2008 2.73466 58.1395 2.05199C56.3475 5.80666 54.6408 8.40933 53.0195 9.85999C51.4835 11.2253 49.9902 11.908 48.5395 11.908C47.1742 11.908 45.7662 11.4813 44.3155 10.628C42.9502 9.77467 41.4142 8.836 39.7075 7.812C38.0862 6.78799 36.2942 5.84933 34.3315 4.99599C32.4542 4.14266 30.3208 3.716 27.9315 3.716C24.2622 3.716 21.0195 4.65466 18.2035 6.532C15.3875 8.32399 13.0835 11.012 11.2915 14.596C9.58483 18.0947 8.4755 22.4893 7.9635 27.78C7.4515 32.9853 7.7075 39.044 8.7315 45.956C9.92617 43.5667 11.4195 41.476 13.2115 39.684C15.0035 37.8067 16.9235 36.228 18.9715 34.948C21.1048 33.668 23.3235 32.6867 25.6275 32.004C27.9315 31.3213 30.1502 30.98 32.2835 30.98C35.8675 30.98 39.0248 31.9187 41.7555 33.796C44.5715 35.588 46.4915 38.4893 47.5155 42.5C45.2968 40.2813 42.7368 38.7027 39.8355 37.764C37.0195 36.8253 34.1182 36.356 31.1315 36.356C28.8275 36.356 26.5662 36.612 24.3475 37.124C22.1288 37.636 20.0382 38.404 18.0755 39.428C16.1128 40.3667 14.3208 41.5613 12.6995 43.012C11.1635 44.3773 9.92617 45.956 8.9875 47.748C9.58483 51.332 10.4382 55.2573 11.5475 59.524C12.6568 63.7053 14.1928 67.588 16.1555 71.172C18.1182 74.756 20.6355 77.7853 23.7075 80.26C26.7795 82.6493 30.6195 83.844 35.2275 83.844C37.3608 83.844 39.7928 83.5027 42.5235 82.82C45.2542 82.052 47.5155 80.8147 49.3075 79.108C51.1848 77.4013 52.5928 75.396 53.5315 73.092C54.4702 70.788 54.9395 68.2707 54.9395 65.54C54.9395 62.8093 54.4275 60.036 53.4035 57.22C55.7075 60.7187 56.9875 64.4733 57.2435 68.484C57.4995 72.4093 56.7742 76.0787 55.0675 79.492C53.4462 82.82 50.8435 85.5933 47.2595 87.812C43.6755 90.0307 39.1102 91.14 33.5635 91.14C28.2728 91.14 23.5368 89.9453 19.3555 87.556C15.1742 85.1667 11.6328 81.924 8.7315 77.828C5.9155 73.732 3.7395 68.9107 2.2035 63.364C0.752834 57.8173 0.0275002 51.9293 0.0275002 45.7ZM59.7175 88.964C61.2535 85.892 62.6615 83.7587 63.9415 82.564C65.3068 81.3693 66.5868 80.772 67.7815 80.772C68.9762 80.772 70.1282 81.1987 71.2375 82.052C72.4322 82.82 73.6695 83.716 74.9495 84.74C76.3148 85.6787 77.7655 86.5747 79.3015 87.428C80.8375 88.196 82.5442 88.58 84.4215 88.58C86.4695 88.58 88.2188 88.2813 89.6695 87.684C91.2055 87.0013 92.4428 86.148 93.3815 85.124C94.3202 84.1 95.0028 82.948 95.4295 81.668C95.8562 80.388 96.0695 79.0653 96.0695 77.7C96.0695 74.9693 95.2162 72.4947 93.5095 70.276C91.8028 68.0573 89.6695 65.9667 87.1095 64.004C84.5495 62.0413 81.7762 60.1213 78.7895 58.244C75.8028 56.3667 73.0295 54.4467 70.4695 52.484C67.9095 50.436 65.7762 48.2173 64.0695 45.828C62.3628 43.4387 61.5095 40.7507 61.5095 37.764C61.5095 36.0573 61.7228 34.4787 62.1495 33.028C62.6615 31.492 63.4722 30.1693 64.5815 29.06C65.7762 27.8653 67.3975 26.9693 69.4455 26.372C71.4935 25.6893 74.0962 25.348 77.2535 25.348C82.4588 25.348 86.9388 26.9267 90.6935 30.084C94.5335 33.156 97.9468 37.0387 100.934 41.732C103.92 46.4253 106.608 51.5027 108.998 56.964C111.472 62.4253 113.99 67.5027 116.55 72.196C119.11 76.8893 121.84 80.8147 124.742 83.972C127.728 87.044 131.184 88.58 135.11 88.58C137.158 88.58 138.907 88.2813 140.358 87.684C141.894 87.0013 143.131 86.148 144.07 85.124C145.008 84.1 145.691 82.948 146.118 81.668C146.544 80.388 146.758 79.0653 146.758 77.7C146.758 74.9693 145.904 72.4947 144.198 70.276C142.491 68.0573 140.358 65.9667 137.798 64.004C135.238 62.0413 132.464 60.1213 129.478 58.244C126.491 56.3667 123.718 54.4467 121.158 52.484C118.598 50.436 116.464 48.2173 114.758 45.828C113.051 43.4387 112.198 40.7507 112.198 37.764C112.198 36.0573 112.411 34.4787 112.838 33.028C113.35 31.492 114.16 30.1693 115.27 29.06C116.464 27.8653 118.043 26.9693 120.006 26.372C122.054 25.6893 124.656 25.348 127.814 25.348C129.52 25.348 131.184 25.5187 132.806 25.86C134.427 26.2013 136.006 26.628 137.542 27.14C139.078 27.5667 140.571 27.9507 142.022 28.292C143.558 28.6333 145.008 28.804 146.374 28.804C147.312 28.804 148.251 28.7187 149.19 28.548C150.128 28.292 151.024 27.8653 151.878 27.268C150.342 30.2547 148.934 32.3453 147.654 33.54C146.459 34.7347 145.264 35.332 144.07 35.332C142.96 35.332 141.808 34.948 140.614 34.18C139.504 33.3267 138.31 32.4307 137.03 31.492C135.835 30.468 134.47 29.572 132.934 28.804C131.483 27.9507 129.776 27.524 127.814 27.524C124.827 27.524 122.651 28.292 121.286 29.828C120.006 31.2787 119.366 33.0707 119.366 35.204C119.366 37.5933 120.219 39.812 121.926 41.86C123.718 43.908 125.894 45.9133 128.454 47.876C131.099 49.8387 133.958 51.8013 137.03 53.764C140.102 55.6413 142.918 57.6893 145.478 59.908C148.123 62.0413 150.299 64.388 152.006 66.948C153.798 69.4227 154.694 72.2387 154.694 75.396C154.694 77.7853 154.139 79.9613 153.03 81.924C152.006 83.8013 150.512 85.4227 148.55 86.788C146.672 88.068 144.411 89.0493 141.766 89.732C139.12 90.4147 136.219 90.756 133.062 90.756C129.136 90.756 125.638 89.22 122.566 86.148C119.579 82.9907 116.763 79.0653 114.118 74.372C111.558 69.6787 109.04 64.6013 106.566 59.14C104.091 53.6787 101.403 48.6013 98.5015 43.908C95.6855 39.2147 92.5708 35.332 89.1575 32.26C85.7442 29.1027 81.7335 27.524 77.1255 27.524C74.1388 27.524 71.9628 28.292 70.5975 29.828C69.3175 31.2787 68.6775 33.0707 68.6775 35.204C68.6775 37.5933 69.5308 39.812 71.2375 41.86C73.0295 43.908 75.2055 45.9133 77.7655 47.876C80.4108 49.8387 83.2695 51.8013 86.3415 53.764C89.4135 55.6413 92.2295 57.6893 94.7895 59.908C97.4348 62.0413 99.6108 64.388 101.318 66.948C103.11 69.4227 104.006 72.2387 104.006 75.396C104.006 80.26 102 84.0573 97.9895 86.788C93.9788 89.4333 88.7735 90.756 82.3735 90.756C80.7522 90.756 79.1735 90.5853 77.6375 90.244C76.1015 89.9027 74.6082 89.5187 73.1575 89.092C71.7922 88.58 70.4268 88.1533 69.0615 87.812C67.6962 87.4707 66.3735 87.3 65.0935 87.3C64.1548 87.3 63.2588 87.428 62.4055 87.684C61.5522 87.8547 60.6562 88.2813 59.7175 88.964ZM187.009 90.756C182.742 90.756 178.902 89.9027 175.489 88.196C172.161 86.4893 169.345 84.1427 167.041 81.156C164.737 78.1693 162.945 74.7133 161.665 70.788C160.47 66.7773 159.873 62.5107 159.873 57.988C159.873 52.612 160.513 47.9187 161.793 43.908C163.073 39.812 164.822 36.3987 167.041 33.668C169.345 30.852 172.033 28.7613 175.105 27.396C178.177 25.9453 181.462 25.22 184.961 25.22C189.483 25.22 193.281 26.0307 196.353 27.652C199.51 29.2733 201.771 31.364 203.137 33.924C204.502 36.484 204.929 39.3427 204.417 42.5C203.905 45.572 202.283 48.5587 199.553 51.46C196.907 54.3613 193.067 57.0067 188.033 59.396C182.998 61.7853 176.641 63.5347 168.961 64.644C170.753 71.3 173.569 76.2067 177.409 79.364C181.249 82.5213 185.473 84.1 190.081 84.1C193.409 84.1 196.779 83.332 200.193 81.796C203.606 80.1747 206.806 77.828 209.793 74.756C208.854 76.6333 207.574 78.5533 205.953 80.516C204.331 82.3933 202.497 84.1 200.449 85.636C198.486 87.172 196.353 88.4093 194.049 89.348C191.745 90.2867 189.398 90.756 187.009 90.756ZM184.833 27.396C182.443 27.396 179.969 27.9933 177.409 29.188C174.849 30.3827 172.673 32.3453 170.881 35.076C169.089 37.8067 167.851 41.3907 167.169 45.828C166.486 50.18 166.827 55.556 168.193 61.956C168.278 62.0413 168.321 62.1693 168.321 62.34C173.953 61.828 178.689 60.5907 182.529 58.628C186.369 56.6653 189.441 54.404 191.745 51.844C194.049 49.284 195.542 46.5533 196.225 43.652C196.993 40.7507 197.078 38.1053 196.481 35.716C195.883 33.3267 194.561 31.364 192.513 29.828C190.55 28.2067 187.99 27.396 184.833 27.396ZM215.528 26.116H223.464V55.044C224.317 51.0333 225.469 47.236 226.92 43.652C228.37 39.9827 230.077 36.7827 232.04 34.052C234.088 31.3213 236.349 29.188 238.824 27.652C241.384 26.0307 244.157 25.22 247.144 25.22C250.642 25.22 253.202 25.7747 254.824 26.884C256.53 27.9933 257.597 29.5293 258.024 31.492C258.536 33.4547 258.578 35.8013 258.152 38.532C257.725 41.2627 257.17 44.2067 256.488 47.364C255.89 50.5213 255.336 53.892 254.824 57.476C254.312 60.9747 254.226 64.5587 254.568 68.228C254.909 71.8973 255.805 75.5667 257.256 79.236C258.706 82.82 261.053 86.3187 264.296 89.732H255.464C251.88 84.868 249.49 80.0467 248.296 75.268C247.186 70.4893 246.717 65.924 246.888 61.572C247.058 57.1347 247.57 53.0387 248.424 49.284C249.277 45.444 249.917 42.1587 250.344 39.428C250.856 36.612 250.813 34.436 250.216 32.9C249.618 31.2787 247.954 30.468 245.224 30.468C242.066 30.468 239.25 31.492 236.776 33.54C234.386 35.5027 232.296 38.148 230.503 41.476C228.712 44.804 227.218 48.6867 226.024 53.124C224.829 57.5613 223.976 62.212 223.464 67.076V89.732H215.528V26.116ZM265.248 57.988C265.248 47.236 267.253 39.0867 271.264 33.54C275.274 27.9933 280.778 25.22 287.776 25.22C289.482 25.22 291.232 25.3907 293.024 25.732C294.901 26.0733 296.736 26.5 298.528 27.012C300.405 27.4387 302.24 27.8227 304.032 28.164C305.824 28.5053 307.53 28.676 309.152 28.676C310.261 28.676 311.328 28.5907 312.352 28.42C313.376 28.164 314.314 27.7373 315.168 27.14C313.461 30.724 311.797 33.1987 310.176 34.564C308.554 35.9293 306.976 36.612 305.44 36.612C303.904 36.612 302.41 36.1427 300.96 35.204C299.509 34.18 298.058 33.1133 296.608 32.004C295.157 30.8093 293.706 29.7427 292.256 28.804C290.805 27.8653 289.312 27.396 287.776 27.396C285.386 27.396 283.04 27.9933 280.736 29.188C278.432 30.3827 276.512 32.3453 274.976 35.076C273.525 37.8067 272.586 41.3907 272.16 45.828C271.733 50.18 272.202 55.556 273.568 61.956C275.274 69.5507 278.133 75.14 282.144 78.724C286.154 82.308 290.592 84.1 295.456 84.1C298.784 84.1 302.154 83.2893 305.568 81.668C308.981 80.0467 312.181 77.7427 315.168 74.756C314.229 76.6333 312.949 78.5533 311.328 80.516C309.706 82.3933 307.872 84.1 305.824 85.636C303.861 87.172 301.728 88.4093 299.424 89.348C297.12 90.2867 294.773 90.756 292.384 90.756C288.117 90.756 284.277 89.9027 280.864 88.196C277.536 86.4893 274.72 84.1427 272.416 81.156C270.112 78.1693 268.32 74.7133 267.04 70.788C265.845 66.7773 265.248 62.5107 265.248 57.988ZM345.134 90.756C340.867 90.756 337.027 89.9027 333.614 88.196C330.286 86.4893 327.47 84.1427 325.166 81.156C322.862 78.1693 321.07 74.7133 319.79 70.788C318.595 66.7773 317.998 62.5107 317.998 57.988C317.998 52.612 318.638 47.9187 319.918 43.908C321.198 39.812 322.947 36.3987 325.166 33.668C327.47 30.852 330.158 28.7613 333.23 27.396C336.302 25.9453 339.587 25.22 343.086 25.22C347.608 25.22 351.406 26.0307 354.478 27.652C357.635 29.2733 359.896 31.364 361.262 33.924C362.627 36.484 363.054 39.3427 362.542 42.5C362.03 45.572 360.408 48.5587 357.678 51.46C355.032 54.3613 351.192 57.0067 346.158 59.396C341.123 61.7853 334.766 63.5347 327.086 64.644C328.878 71.3 331.694 76.2067 335.534 79.364C339.374 82.5213 343.598 84.1 348.206 84.1C351.534 84.1 354.904 83.332 358.318 81.796C361.731 80.1747 364.931 77.828 367.918 74.756C366.979 76.6333 365.699 78.5533 364.078 80.516C362.456 82.3933 360.622 84.1 358.574 85.636C356.611 87.172 354.478 88.4093 352.174 89.348C349.87 90.2867 347.523 90.756 345.134 90.756ZM342.958 27.396C340.568 27.396 338.094 27.9933 335.534 29.188C332.974 30.3827 330.798 32.3453 329.006 35.076C327.214 37.8067 325.976 41.3907 325.294 45.828C324.611 50.18 324.952 55.556 326.318 61.956C326.403 62.0413 326.446 62.1693 326.446 62.34C332.078 61.828 336.814 60.5907 340.654 58.628C344.494 56.6653 347.566 54.404 349.87 51.844C352.174 49.284 353.667 46.5533 354.35 43.652C355.118 40.7507 355.203 38.1053 354.606 35.716C354.008 33.3267 352.686 31.364 350.638 29.828C348.675 28.2067 346.115 27.396 342.958 27.396Z" fill="black"/>
</svg>
